<?xml version="1.0" encoding="utf-8" standalone="no"?>
<!DOCTYPE svg PUBLIC "-//W3C//DTD SVG 1.1//EN"
  "http://www.w3.org/Graphics/SVG/1.1/DTD/svg11.dtd">
<svg xmlns:xlink="http://www.w3.org/1999/xlink" width="1008pt" height="576pt" viewBox="0 0 1008 576" xmlns="http://www.w3.org/2000/svg" version="1.1">
 <metadata>
  <rdf:RDF xmlns:dc="http://purl.org/dc/elements/1.1/" xmlns:cc="http://creativecommons.org/ns#" xmlns:rdf="http://www.w3.org/1999/02/22-rdf-syntax-ns#">
   <cc:Work>
    <dc:type rdf:resource="http://purl.org/dc/dcmitype/StillImage"/>
    <dc:date>2025-04-09T15:18:29.382657</dc:date>
    <dc:format>image/svg+xml</dc:format>
    <dc:creator>
     <cc:Agent>
      <dc:title>Matplotlib v3.8.2, https://matplotlib.org/</dc:title>
     </cc:Agent>
    </dc:creator>
   </cc:Work>
  </rdf:RDF>
 </metadata>
 <defs>
  <style type="text/css">*{stroke-linejoin: round; stroke-linecap: butt}</style>
 </defs>
 <g id="figure_1">
  <g id="patch_1">
   <path d="M 0 576 
L 1008 576 
L 1008 0 
L 0 0 
z
" style="fill: #ffffff"/>
  </g>
  <g id="axes_1">
   <g id="patch_2">
    <path d="M 104.22 516.6 
L 997.2 516.6 
L 997.2 86.4 
L 104.22 86.4 
z
" style="fill: #ffffff"/>
   </g>
   <g id="matplotlib.axis_1">
    <g id="xtick_1">
     <g id="line2d_1">
      <defs>
       <path id="m03830505d6" d="M 0 0 
L 0 3.5 
" style="stroke: #000000; stroke-width: 0.8"/>
      </defs>
      <g>
       <use xlink:href="#m03830505d6" x="109.514348" y="516.6" style="stroke: #000000; stroke-width: 0.8"/>
      </g>
     </g>
     <g id="text_1">
      <!-- 0 -->
      <g transform="translate(106.333098 531.198437) scale(0.1 -0.1)">
       <defs>
        <path id="DejaVuSans-30" d="M 2034 4250 
Q 1547 4250 1301 3770 
Q 1056 3291 1056 2328 
Q 1056 1369 1301 889 
Q 1547 409 2034 409 
Q 2525 409 2770 889 
Q 3016 1369 3016 2328 
Q 3016 3291 2770 3770 
Q 2525 4250 2034 4250 
z
M 2034 4750 
Q 2819 4750 3233 4129 
Q 3647 3509 3647 2328 
Q 3647 1150 3233 529 
Q 2819 -91 2034 -91 
Q 1250 -91 836 529 
Q 422 1150 422 2328 
Q 422 3509 836 4129 
Q 1250 4750 2034 4750 
z
" transform="scale(0.015625)"/>
       </defs>
       <use xlink:href="#DejaVuSans-30"/>
      </g>
     </g>
    </g>
    <g id="xtick_2">
     <g id="line2d_2">
      <g>
       <use xlink:href="#m03830505d6" x="227.166522" y="516.6" style="stroke: #000000; stroke-width: 0.8"/>
      </g>
     </g>
     <g id="text_2">
      <!-- 10 -->
      <g transform="translate(220.804022 531.198437) scale(0.1 -0.1)">
       <defs>
        <path id="DejaVuSans-31" d="M 794 531 
L 1825 531 
L 1825 4091 
L 703 3866 
L 703 4441 
L 1819 4666 
L 2450 4666 
L 2450 531 
L 3481 531 
L 3481 0 
L 794 0 
L 794 531 
z
" transform="scale(0.015625)"/>
       </defs>
       <use xlink:href="#DejaVuSans-31"/>
       <use xlink:href="#DejaVuSans-30" x="63.623047"/>
      </g>
     </g>
    </g>
    <g id="xtick_3">
     <g id="line2d_3">
      <g>
       <use xlink:href="#m03830505d6" x="344.818696" y="516.6" style="stroke: #000000; stroke-width: 0.8"/>
      </g>
     </g>
     <g id="text_3">
      <!-- 20 -->
      <g transform="translate(338.456196 531.198437) scale(0.1 -0.1)">
       <defs>
        <path id="DejaVuSans-32" d="M 1228 531 
L 3431 531 
L 3431 0 
L 469 0 
L 469 531 
Q 828 903 1448 1529 
Q 2069 2156 2228 2338 
Q 2531 2678 2651 2914 
Q 2772 3150 2772 3378 
Q 2772 3750 2511 3984 
Q 2250 4219 1831 4219 
Q 1534 4219 1204 4116 
Q 875 4013 500 3803 
L 500 4441 
Q 881 4594 1212 4672 
Q 1544 4750 1819 4750 
Q 2544 4750 2975 4387 
Q 3406 4025 3406 3419 
Q 3406 3131 3298 2873 
Q 3191 2616 2906 2266 
Q 2828 2175 2409 1742 
Q 1991 1309 1228 531 
z
" transform="scale(0.015625)"/>
       </defs>
       <use xlink:href="#DejaVuSans-32"/>
       <use xlink:href="#DejaVuSans-30" x="63.623047"/>
      </g>
     </g>
    </g>
    <g id="xtick_4">
     <g id="line2d_4">
      <g>
       <use xlink:href="#m03830505d6" x="462.47087" y="516.6" style="stroke: #000000; stroke-width: 0.8"/>
      </g>
     </g>
     <g id="text_4">
      <!-- 30 -->
      <g transform="translate(456.10837 531.198437) scale(0.1 -0.1)">
       <defs>
        <path id="DejaVuSans-33" d="M 2597 2516 
Q 3050 2419 3304 2112 
Q 3559 1806 3559 1356 
Q 3559 666 3084 287 
Q 2609 -91 1734 -91 
Q 1441 -91 1130 -33 
Q 819 25 488 141 
L 488 750 
Q 750 597 1062 519 
Q 1375 441 1716 441 
Q 2309 441 2620 675 
Q 2931 909 2931 1356 
Q 2931 1769 2642 2001 
Q 2353 2234 1838 2234 
L 1294 2234 
L 1294 2753 
L 1863 2753 
Q 2328 2753 2575 2939 
Q 2822 3125 2822 3475 
Q 2822 3834 2567 4026 
Q 2313 4219 1838 4219 
Q 1578 4219 1281 4162 
Q 984 4106 628 3988 
L 628 4550 
Q 988 4650 1302 4700 
Q 1616 4750 1894 4750 
Q 2613 4750 3031 4423 
Q 3450 4097 3450 3541 
Q 3450 3153 3228 2886 
Q 3006 2619 2597 2516 
z
" transform="scale(0.015625)"/>
       </defs>
       <use xlink:href="#DejaVuSans-33"/>
       <use xlink:href="#DejaVuSans-30" x="63.623047"/>
      </g>
     </g>
    </g>
    <g id="xtick_5">
     <g id="line2d_5">
      <g>
       <use xlink:href="#m03830505d6" x="580.123043" y="516.6" style="stroke: #000000; stroke-width: 0.8"/>
      </g>
     </g>
     <g id="text_5">
      <!-- 40 -->
      <g transform="translate(573.760543 531.198437) scale(0.1 -0.1)">
       <defs>
        <path id="DejaVuSans-34" d="M 2419 4116 
L 825 1625 
L 2419 1625 
L 2419 4116 
z
M 2253 4666 
L 3047 4666 
L 3047 1625 
L 3713 1625 
L 3713 1100 
L 3047 1100 
L 3047 0 
L 2419 0 
L 2419 1100 
L 313 1100 
L 313 1709 
L 2253 4666 
z
" transform="scale(0.015625)"/>
       </defs>
       <use xlink:href="#DejaVuSans-34"/>
       <use xlink:href="#DejaVuSans-30" x="63.623047"/>
      </g>
     </g>
    </g>
    <g id="xtick_6">
     <g id="line2d_6">
      <g>
       <use xlink:href="#m03830505d6" x="697.775217" y="516.6" style="stroke: #000000; stroke-width: 0.8"/>
      </g>
     </g>
     <g id="text_6">
      <!-- 50 -->
      <g transform="translate(691.412717 531.198437) scale(0.1 -0.1)">
       <defs>
        <path id="DejaVuSans-35" d="M 691 4666 
L 3169 4666 
L 3169 4134 
L 1269 4134 
L 1269 2991 
Q 1406 3038 1543 3061 
Q 1681 3084 1819 3084 
Q 2600 3084 3056 2656 
Q 3513 2228 3513 1497 
Q 3513 744 3044 326 
Q 2575 -91 1722 -91 
Q 1428 -91 1123 -41 
Q 819 9 494 109 
L 494 744 
Q 775 591 1075 516 
Q 1375 441 1709 441 
Q 2250 441 2565 725 
Q 2881 1009 2881 1497 
Q 2881 1984 2565 2268 
Q 2250 2553 1709 2553 
Q 1456 2553 1204 2497 
Q 953 2441 691 2322 
L 691 4666 
z
" transform="scale(0.015625)"/>
       </defs>
       <use xlink:href="#DejaVuSans-35"/>
       <use xlink:href="#DejaVuSans-30" x="63.623047"/>
      </g>
     </g>
    </g>
    <g id="xtick_7">
     <g id="line2d_7">
      <g>
       <use xlink:href="#m03830505d6" x="815.427391" y="516.6" style="stroke: #000000; stroke-width: 0.8"/>
      </g>
     </g>
     <g id="text_7">
      <!-- 60 -->
      <g transform="translate(809.064891 531.198437) scale(0.1 -0.1)">
       <defs>
        <path id="DejaVuSans-36" d="M 2113 2584 
Q 1688 2584 1439 2293 
Q 1191 2003 1191 1497 
Q 1191 994 1439 701 
Q 1688 409 2113 409 
Q 2538 409 2786 701 
Q 3034 994 3034 1497 
Q 3034 2003 2786 2293 
Q 2538 2584 2113 2584 
z
M 3366 4563 
L 3366 3988 
Q 3128 4100 2886 4159 
Q 2644 4219 2406 4219 
Q 1781 4219 1451 3797 
Q 1122 3375 1075 2522 
Q 1259 2794 1537 2939 
Q 1816 3084 2150 3084 
Q 2853 3084 3261 2657 
Q 3669 2231 3669 1497 
Q 3669 778 3244 343 
Q 2819 -91 2113 -91 
Q 1303 -91 875 529 
Q 447 1150 447 2328 
Q 447 3434 972 4092 
Q 1497 4750 2381 4750 
Q 2619 4750 2861 4703 
Q 3103 4656 3366 4563 
z
" transform="scale(0.015625)"/>
       </defs>
       <use xlink:href="#DejaVuSans-36"/>
       <use xlink:href="#DejaVuSans-30" x="63.623047"/>
      </g>
     </g>
    </g>
    <g id="xtick_8">
     <g id="line2d_8">
      <g>
       <use xlink:href="#m03830505d6" x="933.079565" y="516.6" style="stroke: #000000; stroke-width: 0.8"/>
      </g>
     </g>
     <g id="text_8">
      <!-- 70 -->
      <g transform="translate(926.717065 531.198437) scale(0.1 -0.1)">
       <defs>
        <path id="DejaVuSans-37" d="M 525 4666 
L 3525 4666 
L 3525 4397 
L 1831 0 
L 1172 0 
L 2766 4134 
L 525 4134 
L 525 4666 
z
" transform="scale(0.015625)"/>
       </defs>
       <use xlink:href="#DejaVuSans-37"/>
       <use xlink:href="#DejaVuSans-30" x="63.623047"/>
      </g>
     </g>
    </g>
    <g id="text_9">
     <!-- Number of Unique IPs Used -->
     <g style="fill: #808080" transform="translate(479.888438 562.278125) scale(0.12 -0.12)">
      <defs>
       <path id="Cabin-Regular-4e" d="M 512 0 
L 512 4480 
L 1171 4480 
L 3379 1126 
L 3379 4480 
L 3994 4480 
L 3994 0 
L 3475 0 
L 1120 3539 
L 1120 0 
L 512 0 
z
" transform="scale(0.015625)"/>
       <path id="Cabin-Regular-75" d="M 1517 -64 
Q 1149 -64 889 85 
Q 630 234 494 538 
Q 358 842 358 1312 
L 358 3136 
L 934 3136 
L 934 1472 
Q 934 973 1105 710 
Q 1277 448 1664 448 
Q 1930 448 2157 576 
Q 2384 704 2470 986 
L 2387 672 
L 2387 3136 
L 2963 3136 
L 2963 0 
L 2451 0 
L 2336 614 
L 2490 512 
Q 2333 221 2107 78 
Q 1882 -64 1517 -64 
z
" transform="scale(0.015625)"/>
       <path id="Cabin-Regular-6d" d="M 390 0 
L 390 3136 
L 838 3136 
L 954 2534 
L 736 2637 
Q 1030 2954 1308 3077 
Q 1587 3200 1894 3200 
Q 2125 3200 2337 3125 
Q 2550 3050 2721 2862 
Q 2893 2675 2995 2342 
L 2835 2413 
Q 2976 2778 3267 2989 
Q 3558 3200 4051 3200 
Q 4445 3200 4713 3054 
Q 4982 2909 5118 2609 
Q 5254 2310 5254 1850 
L 5254 0 
L 4678 0 
L 4678 1843 
Q 4678 2285 4505 2486 
Q 4333 2688 3942 2688 
Q 3667 2688 3500 2603 
Q 3334 2518 3249 2384 
Q 3165 2250 3137 2099 
Q 3110 1949 3110 1818 
L 3110 0 
L 2534 0 
L 2534 1728 
Q 2534 2112 2441 2320 
Q 2349 2528 2182 2608 
Q 2016 2688 1798 2688 
Q 1482 2688 1232 2549 
Q 982 2410 896 2106 
L 966 2419 
L 966 0 
L 390 0 
z
" transform="scale(0.015625)"/>
       <path id="Cabin-Regular-62" d="M 1933 -64 
Q 1603 -64 1294 94 
Q 986 253 864 563 
L 1005 666 
L 896 0 
L 384 0 
L 384 4800 
L 960 4800 
L 960 2522 
L 838 2611 
Q 998 2870 1296 3035 
Q 1594 3200 1933 3200 
Q 2371 3200 2688 2971 
Q 3005 2742 3176 2369 
Q 3347 1997 3347 1568 
Q 3347 1110 3158 740 
Q 2970 371 2650 153 
Q 2330 -64 1933 -64 
z
M 1862 448 
Q 2138 448 2339 600 
Q 2541 752 2649 1006 
Q 2758 1261 2758 1568 
Q 2758 1888 2649 2141 
Q 2541 2394 2339 2541 
Q 2138 2688 1862 2688 
Q 1616 2688 1403 2565 
Q 1190 2442 1059 2194 
Q 928 1946 928 1568 
Q 928 1174 1059 928 
Q 1190 682 1403 565 
Q 1616 448 1862 448 
z
" transform="scale(0.015625)"/>
       <path id="Cabin-Regular-65" d="M 1894 -64 
Q 1341 -64 963 163 
Q 586 390 392 766 
Q 198 1142 198 1594 
Q 198 2032 379 2397 
Q 560 2762 904 2981 
Q 1248 3200 1734 3200 
Q 2125 3200 2430 3045 
Q 2736 2890 2910 2594 
Q 3085 2298 3085 1875 
Q 3085 1808 3080 1729 
Q 3075 1651 3059 1568 
L 787 1568 
Q 829 1133 995 889 
Q 1162 646 1414 547 
Q 1667 448 1965 448 
Q 2182 448 2419 493 
Q 2656 538 2867 634 
L 2944 179 
Q 2762 99 2499 17 
Q 2237 -64 1894 -64 
z
M 838 1965 
L 2490 1965 
Q 2490 2186 2406 2349 
Q 2323 2512 2153 2600 
Q 1984 2688 1722 2688 
Q 1338 2688 1131 2497 
Q 925 2307 838 1965 
z
" transform="scale(0.015625)"/>
       <path id="Cabin-Regular-72" d="M 390 0 
L 390 3136 
L 864 3136 
L 934 2618 
Q 1174 2915 1393 3057 
Q 1613 3200 1862 3200 
Q 1942 3200 2010 3181 
L 1952 2547 
Q 1910 2557 1864 2561 
Q 1818 2566 1760 2566 
Q 1510 2566 1300 2456 
Q 1091 2346 1005 2214 
L 1005 0 
L 390 0 
z
" transform="scale(0.015625)"/>
       <path id="Cabin-Regular-20" transform="scale(0.015625)"/>
       <path id="Cabin-Regular-6f" d="M 1760 -64 
Q 1267 -64 920 155 
Q 573 374 389 744 
Q 205 1114 205 1568 
Q 205 2022 389 2392 
Q 573 2762 920 2981 
Q 1267 3200 1760 3200 
Q 2250 3200 2598 2981 
Q 2947 2762 3131 2392 
Q 3315 2022 3315 1568 
Q 3315 1114 3131 744 
Q 2947 374 2598 155 
Q 2250 -64 1760 -64 
z
M 1760 448 
Q 2227 448 2476 744 
Q 2726 1040 2726 1568 
Q 2726 2096 2476 2392 
Q 2227 2688 1760 2688 
Q 1296 2688 1045 2392 
Q 794 2096 794 1568 
Q 794 1040 1045 744 
Q 1296 448 1760 448 
z
" transform="scale(0.015625)"/>
       <path id="Cabin-Regular-66" d="M 608 0 
L 608 2688 
L 64 2688 
L 141 3136 
L 608 3136 
L 608 3878 
Q 608 4298 832 4549 
Q 1056 4800 1491 4800 
Q 1651 4800 1771 4777 
Q 1891 4755 1990 4717 
L 1901 4230 
Q 1824 4259 1750 4273 
Q 1677 4288 1581 4288 
Q 1395 4288 1289 4184 
Q 1184 4080 1184 3840 
L 1184 3136 
L 2029 3136 
L 2029 2688 
L 1184 2688 
L 1184 0 
L 608 0 
z
" transform="scale(0.015625)"/>
       <path id="Cabin-Regular-55" d="M 2317 -90 
Q 1686 -90 1275 152 
Q 864 394 662 840 
Q 461 1286 461 1901 
L 461 4480 
L 1069 4480 
L 1069 2067 
Q 1069 1760 1117 1472 
Q 1165 1184 1294 957 
Q 1424 730 1672 595 
Q 1920 461 2317 461 
Q 2717 461 2963 595 
Q 3210 730 3339 958 
Q 3469 1187 3517 1475 
Q 3565 1763 3565 2067 
L 3565 4480 
L 4173 4480 
L 4173 1901 
Q 4173 1286 3971 840 
Q 3770 394 3358 152 
Q 2947 -90 2317 -90 
z
" transform="scale(0.015625)"/>
       <path id="Cabin-Regular-6e" d="M 390 0 
L 390 3136 
L 838 3136 
L 954 2534 
L 730 2630 
Q 1046 2982 1348 3091 
Q 1651 3200 1939 3200 
Q 2627 3200 2923 2803 
Q 3219 2406 3219 1728 
L 3219 0 
L 2643 0 
L 2643 1728 
Q 2643 2227 2457 2457 
Q 2272 2688 1824 2688 
Q 1507 2688 1243 2549 
Q 979 2410 896 2106 
L 966 2458 
L 966 0 
L 390 0 
z
" transform="scale(0.015625)"/>
       <path id="Cabin-Regular-69" d="M 390 0 
L 390 3136 
L 966 3136 
L 966 0 
L 390 0 
z
M 390 3840 
L 390 4480 
L 966 4480 
L 966 3840 
L 390 3840 
z
" transform="scale(0.015625)"/>
       <path id="Cabin-Regular-71" d="M 2598 -1549 
L 2598 672 
L 2694 557 
Q 2566 246 2276 91 
Q 1987 -64 1613 -64 
Q 1149 -64 837 153 
Q 525 371 368 740 
Q 211 1110 211 1568 
Q 211 1997 377 2369 
Q 544 2742 856 2971 
Q 1168 3200 1606 3200 
Q 2048 3200 2318 3025 
Q 2589 2851 2784 2534 
L 2624 2419 
L 2726 3136 
L 3174 3136 
L 3174 -1549 
L 2598 -1549 
z
M 1690 448 
Q 1949 448 2161 565 
Q 2374 682 2502 928 
Q 2630 1174 2630 1568 
Q 2630 2134 2355 2411 
Q 2080 2688 1690 2688 
Q 1274 2688 1037 2392 
Q 800 2096 800 1568 
Q 800 1040 1037 744 
Q 1274 448 1690 448 
z
" transform="scale(0.015625)"/>
       <path id="Cabin-Regular-49" d="M 512 0 
L 512 4480 
L 1120 4480 
L 1120 0 
L 512 0 
z
" transform="scale(0.015625)"/>
       <path id="Cabin-Regular-50" d="M 512 0 
L 512 4480 
L 1990 4480 
Q 2442 4480 2784 4336 
Q 3126 4192 3316 3872 
Q 3507 3552 3507 3027 
Q 3507 2512 3316 2190 
Q 3126 1869 2784 1718 
Q 2442 1568 1990 1568 
L 1152 1568 
L 1152 0 
L 512 0 
z
M 1152 2112 
L 1901 2112 
Q 2390 2112 2635 2334 
Q 2880 2557 2880 3021 
Q 2880 3488 2648 3712 
Q 2416 3936 1901 3936 
L 1152 3936 
L 1152 2112 
z
" transform="scale(0.015625)"/>
       <path id="Cabin-Regular-73" d="M 1280 -64 
Q 864 -64 590 35 
Q 317 134 205 211 
L 275 768 
Q 378 678 637 563 
Q 896 448 1254 448 
Q 1558 448 1720 550 
Q 1882 653 1882 838 
Q 1882 1002 1778 1102 
Q 1674 1203 1528 1262 
Q 1382 1322 1254 1357 
Q 1040 1414 811 1502 
Q 582 1590 425 1766 
Q 269 1942 269 2259 
Q 269 2499 384 2715 
Q 499 2931 758 3065 
Q 1018 3200 1446 3200 
Q 1760 3200 1957 3134 
Q 2154 3069 2298 2995 
L 2227 2470 
Q 2090 2586 1907 2666 
Q 1725 2746 1459 2746 
Q 1190 2746 1020 2645 
Q 851 2544 851 2323 
Q 851 2102 1032 2009 
Q 1213 1917 1581 1805 
Q 1696 1773 1848 1712 
Q 2000 1651 2144 1548 
Q 2288 1446 2382 1281 
Q 2477 1117 2477 870 
Q 2477 662 2377 446 
Q 2278 230 2019 83 
Q 1760 -64 1280 -64 
z
" transform="scale(0.015625)"/>
       <path id="Cabin-Regular-64" d="M 1632 -64 
Q 1232 -64 909 153 
Q 586 371 395 739 
Q 205 1107 205 1562 
Q 205 1994 379 2368 
Q 554 2742 874 2971 
Q 1194 3200 1632 3200 
Q 1946 3200 2238 3064 
Q 2531 2928 2714 2611 
L 2592 2528 
L 2592 4800 
L 3168 4800 
L 3168 0 
L 2656 0 
L 2547 666 
L 2694 563 
Q 2557 253 2262 94 
Q 1968 -64 1632 -64 
z
M 1734 448 
Q 1952 448 2165 560 
Q 2378 672 2517 917 
Q 2656 1162 2656 1562 
Q 2656 1933 2517 2184 
Q 2378 2435 2165 2561 
Q 1952 2688 1734 2688 
Q 1440 2688 1229 2541 
Q 1018 2394 906 2139 
Q 794 1885 794 1562 
Q 794 1258 906 1005 
Q 1018 752 1229 600 
Q 1440 448 1734 448 
z
" transform="scale(0.015625)"/>
      </defs>
      <use xlink:href="#Cabin-Regular-4e"/>
      <use xlink:href="#Cabin-Regular-75" x="70.400009"/>
      <use xlink:href="#Cabin-Regular-6d" x="122.800018"/>
      <use xlink:href="#Cabin-Regular-62" x="210.500031"/>
      <use xlink:href="#Cabin-Regular-65" x="266.000031"/>
      <use xlink:href="#Cabin-Regular-72" x="317.200043"/>
      <use xlink:href="#Cabin-Regular-20" x="348.800049"/>
      <use xlink:href="#Cabin-Regular-6f" x="371.300049"/>
      <use xlink:href="#Cabin-Regular-66" x="426.300049"/>
      <use xlink:href="#Cabin-Regular-20" x="459.400055"/>
      <use xlink:href="#Cabin-Regular-55" x="481.900055"/>
      <use xlink:href="#Cabin-Regular-6e" x="554.300064"/>
      <use xlink:href="#Cabin-Regular-69" x="610.200073"/>
      <use xlink:href="#Cabin-Regular-71" x="631.40007"/>
      <use xlink:href="#Cabin-Regular-75" x="687.100082"/>
      <use xlink:href="#Cabin-Regular-65" x="739.500092"/>
      <use xlink:href="#Cabin-Regular-20" x="790.700104"/>
      <use xlink:href="#Cabin-Regular-49" x="813.200104"/>
      <use xlink:href="#Cabin-Regular-50" x="838.700104"/>
      <use xlink:href="#Cabin-Regular-73" x="895.900116"/>
      <use xlink:href="#Cabin-Regular-20" x="937.300125"/>
      <use xlink:href="#Cabin-Regular-55" x="959.800125"/>
      <use xlink:href="#Cabin-Regular-73" x="1032.200134"/>
      <use xlink:href="#Cabin-Regular-65" x="1073.600143"/>
      <use xlink:href="#Cabin-Regular-64" x="1124.800156"/>
     </g>
    </g>
   </g>
   <g id="matplotlib.axis_2">
    <g id="ytick_1">
     <g id="line2d_9">
      <defs>
       <path id="m7cecdec5a6" d="M 0 0 
L -3.5 0 
" style="stroke: #000000; stroke-width: 0.8"/>
      </defs>
      <g>
       <use xlink:href="#m7cecdec5a6" x="104.22" y="444.9" style="stroke: #000000; stroke-width: 0.8"/>
      </g>
     </g>
     <g id="text_10">
      <!-- anomalous -->
      <g transform="translate(42.323125 448.699219) scale(0.1 -0.1)">
       <defs>
        <path id="DejaVuSans-61" d="M 2194 1759 
Q 1497 1759 1228 1600 
Q 959 1441 959 1056 
Q 959 750 1161 570 
Q 1363 391 1709 391 
Q 2188 391 2477 730 
Q 2766 1069 2766 1631 
L 2766 1759 
L 2194 1759 
z
M 3341 1997 
L 3341 0 
L 2766 0 
L 2766 531 
Q 2569 213 2275 61 
Q 1981 -91 1556 -91 
Q 1019 -91 701 211 
Q 384 513 384 1019 
Q 384 1609 779 1909 
Q 1175 2209 1959 2209 
L 2766 2209 
L 2766 2266 
Q 2766 2663 2505 2880 
Q 2244 3097 1772 3097 
Q 1472 3097 1187 3025 
Q 903 2953 641 2809 
L 641 3341 
Q 956 3463 1253 3523 
Q 1550 3584 1831 3584 
Q 2591 3584 2966 3190 
Q 3341 2797 3341 1997 
z
" transform="scale(0.015625)"/>
        <path id="DejaVuSans-6e" d="M 3513 2113 
L 3513 0 
L 2938 0 
L 2938 2094 
Q 2938 2591 2744 2837 
Q 2550 3084 2163 3084 
Q 1697 3084 1428 2787 
Q 1159 2491 1159 1978 
L 1159 0 
L 581 0 
L 581 3500 
L 1159 3500 
L 1159 2956 
Q 1366 3272 1645 3428 
Q 1925 3584 2291 3584 
Q 2894 3584 3203 3211 
Q 3513 2838 3513 2113 
z
" transform="scale(0.015625)"/>
        <path id="DejaVuSans-6f" d="M 1959 3097 
Q 1497 3097 1228 2736 
Q 959 2375 959 1747 
Q 959 1119 1226 758 
Q 1494 397 1959 397 
Q 2419 397 2687 759 
Q 2956 1122 2956 1747 
Q 2956 2369 2687 2733 
Q 2419 3097 1959 3097 
z
M 1959 3584 
Q 2709 3584 3137 3096 
Q 3566 2609 3566 1747 
Q 3566 888 3137 398 
Q 2709 -91 1959 -91 
Q 1206 -91 779 398 
Q 353 888 353 1747 
Q 353 2609 779 3096 
Q 1206 3584 1959 3584 
z
" transform="scale(0.015625)"/>
        <path id="DejaVuSans-6d" d="M 3328 2828 
Q 3544 3216 3844 3400 
Q 4144 3584 4550 3584 
Q 5097 3584 5394 3201 
Q 5691 2819 5691 2113 
L 5691 0 
L 5113 0 
L 5113 2094 
Q 5113 2597 4934 2840 
Q 4756 3084 4391 3084 
Q 3944 3084 3684 2787 
Q 3425 2491 3425 1978 
L 3425 0 
L 2847 0 
L 2847 2094 
Q 2847 2600 2669 2842 
Q 2491 3084 2119 3084 
Q 1678 3084 1418 2786 
Q 1159 2488 1159 1978 
L 1159 0 
L 581 0 
L 581 3500 
L 1159 3500 
L 1159 2956 
Q 1356 3278 1631 3431 
Q 1906 3584 2284 3584 
Q 2666 3584 2933 3390 
Q 3200 3197 3328 2828 
z
" transform="scale(0.015625)"/>
        <path id="DejaVuSans-6c" d="M 603 4863 
L 1178 4863 
L 1178 0 
L 603 0 
L 603 4863 
z
" transform="scale(0.015625)"/>
        <path id="DejaVuSans-75" d="M 544 1381 
L 544 3500 
L 1119 3500 
L 1119 1403 
Q 1119 906 1312 657 
Q 1506 409 1894 409 
Q 2359 409 2629 706 
Q 2900 1003 2900 1516 
L 2900 3500 
L 3475 3500 
L 3475 0 
L 2900 0 
L 2900 538 
Q 2691 219 2414 64 
Q 2138 -91 1772 -91 
Q 1169 -91 856 284 
Q 544 659 544 1381 
z
M 1991 3584 
L 1991 3584 
z
" transform="scale(0.015625)"/>
        <path id="DejaVuSans-73" d="M 2834 3397 
L 2834 2853 
Q 2591 2978 2328 3040 
Q 2066 3103 1784 3103 
Q 1356 3103 1142 2972 
Q 928 2841 928 2578 
Q 928 2378 1081 2264 
Q 1234 2150 1697 2047 
L 1894 2003 
Q 2506 1872 2764 1633 
Q 3022 1394 3022 966 
Q 3022 478 2636 193 
Q 2250 -91 1575 -91 
Q 1294 -91 989 -36 
Q 684 19 347 128 
L 347 722 
Q 666 556 975 473 
Q 1284 391 1588 391 
Q 1994 391 2212 530 
Q 2431 669 2431 922 
Q 2431 1156 2273 1281 
Q 2116 1406 1581 1522 
L 1381 1569 
Q 847 1681 609 1914 
Q 372 2147 372 2553 
Q 372 3047 722 3315 
Q 1072 3584 1716 3584 
Q 2034 3584 2315 3537 
Q 2597 3491 2834 3397 
z
" transform="scale(0.015625)"/>
       </defs>
       <use xlink:href="#DejaVuSans-61"/>
       <use xlink:href="#DejaVuSans-6e" x="61.279297"/>
       <use xlink:href="#DejaVuSans-6f" x="124.658203"/>
       <use xlink:href="#DejaVuSans-6d" x="185.839844"/>
       <use xlink:href="#DejaVuSans-61" x="283.251953"/>
       <use xlink:href="#DejaVuSans-6c" x="344.53125"/>
       <use xlink:href="#DejaVuSans-6f" x="372.314453"/>
       <use xlink:href="#DejaVuSans-75" x="433.496094"/>
       <use xlink:href="#DejaVuSans-73" x="496.875"/>
      </g>
     </g>
    </g>
    <g id="ytick_2">
     <g id="line2d_10">
      <g>
       <use xlink:href="#m7cecdec5a6" x="104.22" y="301.5" style="stroke: #000000; stroke-width: 0.8"/>
      </g>
     </g>
     <g id="text_11">
      <!-- normal -->
      <g transform="translate(62.180938 305.299219) scale(0.1 -0.1)">
       <defs>
        <path id="DejaVuSans-72" d="M 2631 2963 
Q 2534 3019 2420 3045 
Q 2306 3072 2169 3072 
Q 1681 3072 1420 2755 
Q 1159 2438 1159 1844 
L 1159 0 
L 581 0 
L 581 3500 
L 1159 3500 
L 1159 2956 
Q 1341 3275 1631 3429 
Q 1922 3584 2338 3584 
Q 2397 3584 2469 3576 
Q 2541 3569 2628 3553 
L 2631 2963 
z
" transform="scale(0.015625)"/>
       </defs>
       <use xlink:href="#DejaVuSans-6e"/>
       <use xlink:href="#DejaVuSans-6f" x="63.378906"/>
       <use xlink:href="#DejaVuSans-72" x="124.560547"/>
       <use xlink:href="#DejaVuSans-6d" x="163.923828"/>
       <use xlink:href="#DejaVuSans-61" x="261.335938"/>
       <use xlink:href="#DejaVuSans-6c" x="322.615234"/>
      </g>
     </g>
    </g>
    <g id="ytick_3">
     <g id="line2d_11">
      <g>
       <use xlink:href="#m7cecdec5a6" x="104.22" y="158.1" style="stroke: #000000; stroke-width: 0.8"/>
      </g>
     </g>
     <g id="text_12">
      <!-- fraudulent -->
      <g transform="translate(45.248125 161.899219) scale(0.1 -0.1)">
       <defs>
        <path id="DejaVuSans-66" d="M 2375 4863 
L 2375 4384 
L 1825 4384 
Q 1516 4384 1395 4259 
Q 1275 4134 1275 3809 
L 1275 3500 
L 2222 3500 
L 2222 3053 
L 1275 3053 
L 1275 0 
L 697 0 
L 697 3053 
L 147 3053 
L 147 3500 
L 697 3500 
L 697 3744 
Q 697 4328 969 4595 
Q 1241 4863 1831 4863 
L 2375 4863 
z
" transform="scale(0.015625)"/>
        <path id="DejaVuSans-64" d="M 2906 2969 
L 2906 4863 
L 3481 4863 
L 3481 0 
L 2906 0 
L 2906 525 
Q 2725 213 2448 61 
Q 2172 -91 1784 -91 
Q 1150 -91 751 415 
Q 353 922 353 1747 
Q 353 2572 751 3078 
Q 1150 3584 1784 3584 
Q 2172 3584 2448 3432 
Q 2725 3281 2906 2969 
z
M 947 1747 
Q 947 1113 1208 752 
Q 1469 391 1925 391 
Q 2381 391 2643 752 
Q 2906 1113 2906 1747 
Q 2906 2381 2643 2742 
Q 2381 3103 1925 3103 
Q 1469 3103 1208 2742 
Q 947 2381 947 1747 
z
" transform="scale(0.015625)"/>
        <path id="DejaVuSans-65" d="M 3597 1894 
L 3597 1613 
L 953 1613 
Q 991 1019 1311 708 
Q 1631 397 2203 397 
Q 2534 397 2845 478 
Q 3156 559 3463 722 
L 3463 178 
Q 3153 47 2828 -22 
Q 2503 -91 2169 -91 
Q 1331 -91 842 396 
Q 353 884 353 1716 
Q 353 2575 817 3079 
Q 1281 3584 2069 3584 
Q 2775 3584 3186 3129 
Q 3597 2675 3597 1894 
z
M 3022 2063 
Q 3016 2534 2758 2815 
Q 2500 3097 2075 3097 
Q 1594 3097 1305 2825 
Q 1016 2553 972 2059 
L 3022 2063 
z
" transform="scale(0.015625)"/>
        <path id="DejaVuSans-74" d="M 1172 4494 
L 1172 3500 
L 2356 3500 
L 2356 3053 
L 1172 3053 
L 1172 1153 
Q 1172 725 1289 603 
Q 1406 481 1766 481 
L 2356 481 
L 2356 0 
L 1766 0 
Q 1100 0 847 248 
Q 594 497 594 1153 
L 594 3053 
L 172 3053 
L 172 3500 
L 594 3500 
L 594 4494 
L 1172 4494 
z
" transform="scale(0.015625)"/>
       </defs>
       <use xlink:href="#DejaVuSans-66"/>
       <use xlink:href="#DejaVuSans-72" x="35.205078"/>
       <use xlink:href="#DejaVuSans-61" x="76.318359"/>
       <use xlink:href="#DejaVuSans-75" x="137.597656"/>
       <use xlink:href="#DejaVuSans-64" x="200.976562"/>
       <use xlink:href="#DejaVuSans-75" x="264.453125"/>
       <use xlink:href="#DejaVuSans-6c" x="327.832031"/>
       <use xlink:href="#DejaVuSans-65" x="355.615234"/>
       <use xlink:href="#DejaVuSans-6e" x="417.138672"/>
       <use xlink:href="#DejaVuSans-74" x="480.517578"/>
      </g>
     </g>
    </g>
    <g id="text_13">
     <!-- Transaction Category -->
     <g style="fill: #808080" transform="translate(19.323125 355.09875) rotate(-90) scale(0.12 -0.12)">
      <defs>
       <path id="Cabin-Regular-54" d="M 1402 0 
L 1402 3930 
L 96 3930 
L 96 4480 
L 3315 4480 
L 3315 3930 
L 2010 3930 
L 2010 0 
L 1402 0 
z
" transform="scale(0.015625)"/>
       <path id="Cabin-Regular-61" d="M 1120 -64 
Q 829 -64 611 54 
Q 394 173 274 377 
Q 154 582 154 845 
Q 154 1110 270 1300 
Q 387 1491 584 1617 
Q 781 1744 1024 1819 
Q 1267 1894 1528 1928 
Q 1789 1962 2029 1965 
Q 2029 2413 1853 2550 
Q 1677 2688 1344 2688 
Q 1168 2688 968 2633 
Q 768 2579 518 2406 
L 435 2874 
Q 624 3018 905 3109 
Q 1187 3200 1498 3200 
Q 1894 3200 2137 3061 
Q 2381 2922 2493 2592 
Q 2605 2262 2605 1696 
L 2605 1056 
Q 2605 832 2625 686 
Q 2646 541 2721 469 
Q 2797 397 2963 397 
L 3021 397 
L 2931 -64 
L 2886 -64 
Q 2608 -64 2456 -9 
Q 2304 45 2224 147 
Q 2144 250 2080 397 
Q 1904 192 1664 64 
Q 1424 -64 1120 -64 
z
M 1229 397 
Q 1459 397 1675 512 
Q 1891 627 2029 819 
L 2029 1568 
Q 1571 1552 1288 1478 
Q 1005 1405 873 1257 
Q 742 1110 742 877 
Q 742 624 878 510 
Q 1014 397 1229 397 
z
" transform="scale(0.015625)"/>
       <path id="Cabin-Regular-63" d="M 1830 -64 
Q 1299 -64 939 152 
Q 579 368 395 734 
Q 211 1101 211 1549 
Q 211 2016 388 2390 
Q 566 2765 934 2982 
Q 1302 3200 1875 3200 
Q 2122 3200 2341 3150 
Q 2560 3101 2733 3014 
L 2643 2509 
Q 2467 2592 2270 2640 
Q 2074 2688 1862 2688 
Q 1344 2688 1072 2393 
Q 800 2099 800 1574 
Q 800 1062 1059 752 
Q 1318 442 1850 442 
Q 2067 442 2267 493 
Q 2467 544 2650 634 
L 2726 173 
Q 2598 83 2352 9 
Q 2106 -64 1830 -64 
z
" transform="scale(0.015625)"/>
       <path id="Cabin-Regular-74" d="M 1472 -64 
Q 1174 -64 995 45 
Q 816 154 734 325 
Q 653 496 653 685 
L 653 2688 
L 115 2688 
L 166 3136 
L 653 3136 
L 653 3910 
L 1229 3968 
L 1229 3136 
L 2054 3136 
L 2054 2688 
L 1229 2688 
L 1229 1037 
Q 1229 736 1264 601 
Q 1299 467 1438 432 
Q 1578 397 1888 397 
L 2035 397 
L 1990 -64 
L 1472 -64 
z
" transform="scale(0.015625)"/>
       <path id="Cabin-Regular-43" d="M 2509 -90 
Q 1856 -90 1345 196 
Q 835 483 542 1006 
Q 250 1530 250 2240 
Q 250 2950 546 3473 
Q 842 3997 1358 4283 
Q 1875 4570 2534 4570 
Q 2877 4570 3187 4496 
Q 3498 4422 3731 4307 
L 3667 3744 
Q 3427 3859 3139 3939 
Q 2851 4019 2528 4019 
Q 2000 4019 1641 3780 
Q 1283 3542 1099 3139 
Q 915 2736 915 2240 
Q 915 1744 1096 1341 
Q 1277 938 1633 699 
Q 1990 461 2515 461 
Q 2848 461 3131 533 
Q 3414 605 3667 730 
L 3731 166 
Q 3491 58 3190 -16 
Q 2890 -90 2509 -90 
z
" transform="scale(0.015625)"/>
       <path id="Cabin-Regular-67" d="M 1658 -1600 
Q 1229 -1600 891 -1494 
Q 554 -1389 360 -1181 
Q 166 -973 166 -666 
Q 166 -410 312 -226 
Q 458 -42 710 70 
Q 560 144 481 245 
Q 403 346 403 467 
Q 403 611 491 728 
Q 579 845 774 922 
Q 512 1085 371 1361 
Q 230 1638 230 1978 
Q 230 2320 384 2597 
Q 538 2874 827 3037 
Q 1117 3200 1523 3200 
Q 1741 3200 1934 3136 
Q 2128 3072 2291 2957 
Q 2435 3040 2632 3094 
Q 2829 3149 3072 3149 
Q 3088 3149 3099 3149 
Q 3110 3149 3123 3149 
L 3053 2765 
Q 3014 2765 2979 2765 
Q 2944 2765 2906 2765 
Q 2874 2765 2758 2755 
Q 2643 2746 2547 2720 
Q 2678 2566 2750 2376 
Q 2822 2186 2822 1978 
Q 2822 1619 2667 1336 
Q 2512 1053 2221 888 
Q 1930 723 1523 723 
Q 1408 723 1302 737 
Q 1197 752 1101 781 
Q 954 733 954 614 
Q 954 544 1037 491 
Q 1120 438 1306 410 
L 2144 275 
Q 2653 195 2929 -19 
Q 3206 -234 3206 -627 
Q 3206 -954 3016 -1170 
Q 2826 -1386 2477 -1493 
Q 2128 -1600 1658 -1600 
z
M 1709 -1088 
Q 2150 -1088 2387 -974 
Q 2624 -861 2624 -640 
Q 2624 -467 2475 -368 
Q 2326 -269 2048 -218 
L 1155 -67 
Q 979 -144 848 -273 
Q 717 -403 717 -576 
Q 717 -845 987 -966 
Q 1258 -1088 1709 -1088 
z
M 1523 1184 
Q 1888 1184 2080 1403 
Q 2272 1622 2272 1971 
Q 2272 2307 2080 2523 
Q 1888 2739 1523 2739 
Q 1158 2739 969 2523 
Q 781 2307 781 1971 
Q 781 1622 969 1403 
Q 1158 1184 1523 1184 
z
" transform="scale(0.015625)"/>
       <path id="Cabin-Regular-79" d="M 627 -1549 
L 1350 141 
L 45 3136 
L 685 3136 
L 1664 806 
L 2547 3136 
L 3187 3136 
L 1267 -1549 
L 627 -1549 
z
" transform="scale(0.015625)"/>
      </defs>
      <use xlink:href="#Cabin-Regular-54"/>
      <use xlink:href="#Cabin-Regular-72" x="53.300003"/>
      <use xlink:href="#Cabin-Regular-61" x="84.900009"/>
      <use xlink:href="#Cabin-Regular-6e" x="132.900009"/>
      <use xlink:href="#Cabin-Regular-73" x="188.800018"/>
      <use xlink:href="#Cabin-Regular-61" x="230.200027"/>
      <use xlink:href="#Cabin-Regular-63" x="278.200027"/>
      <use xlink:href="#Cabin-Regular-74" x="323.600037"/>
      <use xlink:href="#Cabin-Regular-69" x="357.300034"/>
      <use xlink:href="#Cabin-Regular-6f" x="378.500031"/>
      <use xlink:href="#Cabin-Regular-6e" x="433.500031"/>
      <use xlink:href="#Cabin-Regular-20" x="489.40004"/>
      <use xlink:href="#Cabin-Regular-43" x="511.90004"/>
      <use xlink:href="#Cabin-Regular-61" x="573.500046"/>
      <use xlink:href="#Cabin-Regular-74" x="621.500046"/>
      <use xlink:href="#Cabin-Regular-65" x="655.200043"/>
      <use xlink:href="#Cabin-Regular-67" x="706.400055"/>
      <use xlink:href="#Cabin-Regular-6f" x="756.200058"/>
      <use xlink:href="#Cabin-Regular-72" x="811.200058"/>
      <use xlink:href="#Cabin-Regular-79" x="842.800064"/>
     </g>
    </g>
   </g>
   <g id="line2d_12">
    <path d="M 262.462174 466.41 
L 262.462174 423.39 
L 274.227391 423.39 
L 274.227391 466.41 
L 262.462174 466.41 
" clip-path="url(#p964d1e314a)" style="fill: none; stroke: #000000; stroke-linecap: square"/>
   </g>
   <g id="line2d_13">
    <path d="M 262.462174 444.9 
L 262.462174 444.9 
" clip-path="url(#p964d1e314a)" style="fill: none; stroke: #000000; stroke-linecap: square"/>
   </g>
   <g id="line2d_14">
    <path d="M 274.227391 444.9 
L 285.992609 444.9 
" clip-path="url(#p964d1e314a)" style="fill: none; stroke: #000000; stroke-linecap: square"/>
   </g>
   <g id="line2d_15">
    <path d="M 262.462174 455.655 
L 262.462174 434.145 
" clip-path="url(#p964d1e314a)" style="fill: none; stroke: #000000; stroke-linecap: square"/>
   </g>
   <g id="line2d_16">
    <path d="M 285.992609 455.655 
L 285.992609 434.145 
" clip-path="url(#p964d1e314a)" style="fill: none; stroke: #000000; stroke-linecap: square"/>
   </g>
   <g id="line2d_17"/>
   <g id="line2d_18">
    <path d="M 144.81 323.01 
L 144.81 279.99 
L 144.81 279.99 
L 144.81 323.01 
L 144.81 323.01 
" clip-path="url(#p964d1e314a)" style="fill: none; stroke: #000000; stroke-linecap: square"/>
   </g>
   <g id="line2d_19">
    <path d="M 144.81 301.5 
L 144.81 301.5 
" clip-path="url(#p964d1e314a)" style="fill: none; stroke: #000000; stroke-linecap: square"/>
   </g>
   <g id="line2d_20">
    <path d="M 144.81 301.5 
L 144.81 301.5 
" clip-path="url(#p964d1e314a)" style="fill: none; stroke: #000000; stroke-linecap: square"/>
   </g>
   <g id="line2d_21">
    <path d="M 144.81 312.255 
L 144.81 290.745 
" clip-path="url(#p964d1e314a)" style="fill: none; stroke: #000000; stroke-linecap: square"/>
   </g>
   <g id="line2d_22">
    <path d="M 144.81 312.255 
L 144.81 290.745 
" clip-path="url(#p964d1e314a)" style="fill: none; stroke: #000000; stroke-linecap: square"/>
   </g>
   <g id="line2d_23"/>
   <g id="line2d_24">
    <path d="M 956.61 179.61 
L 956.61 136.59 
L 956.61 136.59 
L 956.61 179.61 
L 956.61 179.61 
" clip-path="url(#p964d1e314a)" style="fill: none; stroke: #000000; stroke-linecap: square"/>
   </g>
   <g id="line2d_25">
    <path d="M 956.61 158.1 
L 956.61 158.1 
" clip-path="url(#p964d1e314a)" style="fill: none; stroke: #000000; stroke-linecap: square"/>
   </g>
   <g id="line2d_26">
    <path d="M 956.61 158.1 
L 956.61 158.1 
" clip-path="url(#p964d1e314a)" style="fill: none; stroke: #000000; stroke-linecap: square"/>
   </g>
   <g id="line2d_27">
    <path d="M 956.61 168.855 
L 956.61 147.345 
" clip-path="url(#p964d1e314a)" style="fill: none; stroke: #000000; stroke-linecap: square"/>
   </g>
   <g id="line2d_28">
    <path d="M 956.61 168.855 
L 956.61 147.345 
" clip-path="url(#p964d1e314a)" style="fill: none; stroke: #000000; stroke-linecap: square"/>
   </g>
   <g id="line2d_29"/>
   <g id="line2d_30">
    <path d="M 262.462174 466.41 
L 262.462174 423.39 
" clip-path="url(#p964d1e314a)" style="fill: none; stroke: #ff7f0e"/>
   </g>
   <g id="line2d_31">
    <path d="M 144.81 323.01 
L 144.81 279.99 
" clip-path="url(#p964d1e314a)" style="fill: none; stroke: #ff7f0e"/>
   </g>
   <g id="line2d_32">
    <path d="M 956.61 179.61 
L 956.61 136.59 
" clip-path="url(#p964d1e314a)" style="fill: none; stroke: #ff7f0e"/>
   </g>
   <g id="patch_3">
    <path d="M 104.22 516.6 
L 104.22 86.4 
" style="fill: none; stroke: #000000; stroke-width: 0.8; stroke-linejoin: miter; stroke-linecap: square"/>
   </g>
   <g id="patch_4">
    <path d="M 997.2 516.6 
L 997.2 86.4 
" style="fill: none; stroke: #000000; stroke-width: 0.8; stroke-linejoin: miter; stroke-linecap: square"/>
   </g>
   <g id="patch_5">
    <path d="M 104.22 516.6 
L 997.2 516.6 
" style="fill: none; stroke: #000000; stroke-width: 0.8; stroke-linejoin: miter; stroke-linecap: square"/>
   </g>
   <g id="patch_6">
    <path d="M 104.22 86.4 
L 997.2 86.4 
" style="fill: none; stroke: #000000; stroke-width: 0.8; stroke-linejoin: miter; stroke-linecap: square"/>
   </g>
  </g>
  <g id="text_14">
   <!-- Distribution of Unique IPs Used in All Categories -->
   <g transform="translate(50.4 -21.293438) scale(0.18 -0.18)">
    <defs>
     <path id="Outfit-Bold-44" d="M 435 0 
L 435 4518 
L 2246 4518 
Q 2752 4518 3187 4352 
Q 3622 4186 3942 3885 
Q 4262 3584 4441 3171 
Q 4621 2758 4621 2259 
Q 4621 1766 4441 1350 
Q 4262 934 3942 633 
Q 3622 333 3193 166 
Q 2765 0 2259 0 
L 435 0 
z
M 2234 3642 
L 1440 3642 
L 1440 883 
L 2234 883 
Q 2848 883 3219 1248 
Q 3590 1613 3590 2266 
Q 3590 2912 3216 3277 
Q 2842 3642 2234 3642 
z
" transform="scale(0.015625)"/>
     <path id="Outfit-Bold-69" d="M 838 3539 
Q 608 3539 457 3696 
Q 307 3853 307 4077 
Q 307 4301 457 4457 
Q 608 4614 838 4614 
Q 1069 4614 1216 4457 
Q 1363 4301 1363 4077 
Q 1363 3853 1216 3696 
Q 1069 3539 838 3539 
z
M 346 0 
L 346 3110 
L 1325 3110 
L 1325 0 
L 346 0 
z
" transform="scale(0.015625)"/>
     <path id="Outfit-Bold-73" d="M 1478 -77 
Q 1062 -77 678 76 
Q 294 230 58 499 
L 614 1062 
Q 934 710 1440 710 
Q 1798 710 1798 902 
Q 1798 1018 1686 1078 
Q 1574 1139 1401 1184 
Q 1229 1229 1037 1289 
Q 845 1350 672 1452 
Q 499 1555 390 1734 
Q 282 1914 282 2202 
Q 282 2643 618 2921 
Q 954 3200 1530 3200 
Q 1926 3200 2262 3062 
Q 2598 2925 2810 2656 
L 2253 2093 
Q 2106 2266 1923 2336 
Q 1741 2406 1568 2406 
Q 1235 2406 1235 2221 
Q 1235 2118 1344 2064 
Q 1453 2010 1625 1962 
Q 1798 1914 1990 1853 
Q 2182 1792 2352 1683 
Q 2522 1574 2634 1388 
Q 2746 1203 2746 915 
Q 2746 454 2403 188 
Q 2061 -77 1478 -77 
z
" transform="scale(0.015625)"/>
     <path id="Outfit-Bold-74" d="M 787 0 
L 787 2278 
L 83 2278 
L 83 3110 
L 787 3110 
L 787 4397 
L 1766 4397 
L 1766 3110 
L 2470 3110 
L 2470 2278 
L 1766 2278 
L 1766 0 
L 787 0 
z
" transform="scale(0.015625)"/>
     <path id="Outfit-Bold-72" d="M 346 0 
L 346 3110 
L 1325 3110 
L 1325 2874 
Q 1632 3174 2125 3174 
Q 2566 3174 2816 2899 
L 2234 2163 
Q 2170 2234 2077 2272 
Q 1984 2310 1856 2310 
Q 1613 2310 1469 2160 
Q 1325 2010 1325 1709 
L 1325 0 
L 346 0 
z
" transform="scale(0.015625)"/>
     <path id="Outfit-Bold-62" d="M 346 0 
L 346 4646 
L 1325 4646 
L 1325 2912 
Q 1485 3034 1693 3104 
Q 1901 3174 2138 3174 
Q 2579 3174 2921 2963 
Q 3264 2752 3459 2384 
Q 3654 2016 3654 1555 
Q 3654 1088 3459 723 
Q 3264 358 2921 147 
Q 2579 -64 2138 -64 
Q 1894 -64 1683 13 
Q 1472 90 1312 224 
L 1312 0 
L 346 0 
z
M 1965 819 
Q 2272 819 2467 1024 
Q 2662 1229 2662 1555 
Q 2662 1875 2467 2083 
Q 2272 2291 1965 2291 
Q 1651 2291 1459 2086 
Q 1267 1882 1267 1555 
Q 1267 1229 1459 1024 
Q 1651 819 1965 819 
z
" transform="scale(0.015625)"/>
     <path id="Outfit-Bold-75" d="M 1728 -70 
Q 1299 -70 969 106 
Q 640 282 454 592 
Q 269 902 269 1312 
L 269 3110 
L 1248 3110 
L 1248 1318 
Q 1248 1075 1376 937 
Q 1504 800 1728 800 
Q 1946 800 2074 937 
Q 2202 1075 2202 1318 
L 2202 3110 
L 3181 3110 
L 3181 1312 
Q 3181 902 2995 588 
Q 2810 275 2483 102 
Q 2157 -70 1728 -70 
z
" transform="scale(0.015625)"/>
     <path id="Outfit-Bold-6f" d="M 1843 -70 
Q 1363 -70 976 144 
Q 589 358 365 729 
Q 141 1101 141 1562 
Q 141 2022 365 2387 
Q 589 2752 973 2966 
Q 1357 3181 1843 3181 
Q 2323 3181 2710 2969 
Q 3098 2758 3322 2390 
Q 3546 2022 3546 1562 
Q 3546 1101 3322 729 
Q 3098 358 2714 144 
Q 2330 -70 1843 -70 
z
M 1843 819 
Q 2157 819 2352 1024 
Q 2547 1229 2547 1562 
Q 2547 1888 2348 2089 
Q 2150 2291 1843 2291 
Q 1530 2291 1334 2086 
Q 1139 1882 1139 1555 
Q 1139 1229 1334 1024 
Q 1530 819 1843 819 
z
" transform="scale(0.015625)"/>
     <path id="Outfit-Bold-6e" d="M 346 0 
L 346 3110 
L 1325 3110 
L 1325 2861 
Q 1670 3174 2195 3174 
Q 2534 3174 2803 3011 
Q 3072 2848 3225 2579 
Q 3379 2310 3379 1990 
L 3379 0 
L 2400 0 
L 2400 1773 
Q 2400 2016 2249 2166 
Q 2099 2317 1869 2317 
Q 1632 2317 1478 2166 
Q 1325 2016 1325 1773 
L 1325 0 
L 346 0 
z
" transform="scale(0.015625)"/>
     <path id="Outfit-Bold-20" transform="scale(0.015625)"/>
     <path id="Outfit-Bold-66" d="M 742 0 
L 742 2278 
L 58 2278 
L 58 3110 
L 742 3110 
L 742 3379 
Q 742 3757 912 4061 
Q 1082 4365 1389 4541 
Q 1696 4717 2118 4717 
Q 2438 4717 2675 4611 
Q 2912 4506 3098 4320 
L 2483 3706 
Q 2419 3770 2339 3805 
Q 2259 3840 2150 3840 
Q 1952 3840 1837 3725 
Q 1722 3610 1722 3411 
L 1722 3110 
L 2618 3110 
L 2618 2278 
L 1722 2278 
L 1722 0 
L 742 0 
z
" transform="scale(0.015625)"/>
     <path id="Outfit-Bold-55" d="M 2253 -70 
Q 1696 -70 1270 170 
Q 845 410 605 826 
Q 365 1242 365 1779 
L 365 4518 
L 1376 4518 
L 1376 1722 
Q 1376 1312 1629 1078 
Q 1882 845 2253 845 
Q 2630 845 2873 1078 
Q 3117 1312 3117 1715 
L 3117 4518 
L 4128 4518 
L 4128 1773 
Q 4128 1235 3891 819 
Q 3654 403 3232 166 
Q 2810 -70 2253 -70 
z
" transform="scale(0.015625)"/>
     <path id="Outfit-Bold-71" d="M 1645 -64 
Q 1216 -64 880 147 
Q 544 358 349 723 
Q 154 1088 154 1555 
Q 154 2016 349 2384 
Q 544 2752 880 2963 
Q 1216 3174 1645 3174 
Q 1901 3174 2121 3088 
Q 2342 3002 2502 2854 
L 2502 3110 
L 3462 3110 
L 3462 -1312 
L 2502 -1312 
L 2502 256 
Q 2342 102 2121 19 
Q 1901 -64 1645 -64 
z
M 1843 819 
Q 2157 819 2349 1024 
Q 2541 1229 2541 1555 
Q 2541 1882 2349 2086 
Q 2157 2291 1850 2291 
Q 1542 2291 1344 2083 
Q 1146 1875 1146 1555 
Q 1146 1229 1341 1024 
Q 1536 819 1843 819 
z
" transform="scale(0.015625)"/>
     <path id="Outfit-Bold-65" d="M 1882 -70 
Q 1376 -70 982 138 
Q 589 346 365 714 
Q 141 1082 141 1555 
Q 141 2022 361 2387 
Q 582 2752 960 2966 
Q 1338 3181 1811 3181 
Q 2266 3181 2621 2979 
Q 2976 2778 3177 2429 
Q 3379 2080 3379 1626 
Q 3379 1453 3334 1235 
L 1107 1229 
Q 1184 966 1382 825 
Q 1581 685 1875 685 
Q 2342 685 2618 1005 
L 3155 467 
Q 2925 198 2598 64 
Q 2272 -70 1882 -70 
z
M 1818 2432 
Q 1549 2432 1363 2291 
Q 1178 2150 1107 1901 
L 2464 1907 
Q 2342 2432 1818 2432 
z
" transform="scale(0.015625)"/>
     <path id="Outfit-Bold-49" d="M 435 0 
L 435 4518 
L 1440 4518 
L 1440 0 
L 435 0 
z
" transform="scale(0.015625)"/>
     <path id="Outfit-Bold-50" d="M 435 0 
L 435 4518 
L 2323 4518 
Q 2752 4518 3097 4342 
Q 3443 4166 3644 3846 
Q 3846 3526 3846 3085 
Q 3846 2637 3644 2317 
Q 3443 1997 3097 1821 
Q 2752 1645 2323 1645 
L 1440 1645 
L 1440 0 
L 435 0 
z
M 2176 3738 
L 1440 3738 
L 1440 2426 
L 2176 2426 
Q 2458 2426 2653 2598 
Q 2848 2771 2848 3085 
Q 2848 3392 2653 3565 
Q 2458 3738 2176 3738 
z
" transform="scale(0.015625)"/>
     <path id="Outfit-Bold-64" d="M 1670 -64 
Q 1229 -64 886 147 
Q 544 358 349 723 
Q 154 1088 154 1555 
Q 154 2016 349 2384 
Q 544 2752 886 2963 
Q 1229 3174 1670 3174 
Q 1907 3174 2115 3104 
Q 2323 3034 2483 2912 
L 2483 4646 
L 3462 4646 
L 3462 0 
L 2502 0 
L 2502 224 
Q 2336 90 2125 13 
Q 1914 -64 1670 -64 
z
M 1843 819 
Q 2157 819 2349 1024 
Q 2541 1229 2541 1555 
Q 2541 1882 2349 2086 
Q 2157 2291 1850 2291 
Q 1542 2291 1344 2083 
Q 1146 1875 1146 1555 
Q 1146 1229 1341 1024 
Q 1536 819 1843 819 
z
" transform="scale(0.015625)"/>
     <path id="Outfit-Bold-41" d="M 96 0 
L 1888 4518 
L 2797 4518 
L 4570 0 
L 3507 0 
L 3206 819 
L 1440 819 
L 1139 0 
L 96 0 
z
M 1741 1638 
L 2912 1638 
L 2330 3251 
L 1741 1638 
z
" transform="scale(0.015625)"/>
     <path id="Outfit-Bold-6c" d="M 346 0 
L 346 4646 
L 1325 4646 
L 1325 0 
L 346 0 
z
" transform="scale(0.015625)"/>
     <path id="Outfit-Bold-43" d="M 2579 -70 
Q 2067 -70 1635 106 
Q 1203 282 883 598 
Q 563 915 384 1340 
Q 205 1766 205 2266 
Q 205 2758 384 3180 
Q 563 3603 883 3920 
Q 1203 4237 1632 4413 
Q 2061 4589 2573 4589 
Q 3110 4589 3529 4416 
Q 3949 4243 4262 3942 
L 3590 3264 
Q 3411 3456 3158 3565 
Q 2906 3674 2573 3674 
Q 2176 3674 1875 3498 
Q 1574 3322 1404 3005 
Q 1235 2688 1235 2266 
Q 1235 1837 1404 1517 
Q 1574 1197 1875 1021 
Q 2176 845 2573 845 
Q 2918 845 3174 953 
Q 3430 1062 3616 1254 
L 4294 576 
Q 3968 275 3549 102 
Q 3130 -70 2579 -70 
z
" transform="scale(0.015625)"/>
     <path id="Outfit-Bold-61" d="M 1645 -64 
Q 1216 -64 880 147 
Q 544 358 349 723 
Q 154 1088 154 1555 
Q 154 2016 349 2384 
Q 544 2752 880 2963 
Q 1216 3174 1645 3174 
Q 1901 3174 2121 3088 
Q 2342 3002 2502 2854 
L 2502 3110 
L 3462 3110 
L 3462 0 
L 2502 0 
L 2502 256 
Q 2342 102 2121 19 
Q 1901 -64 1645 -64 
z
M 1843 819 
Q 2157 819 2349 1024 
Q 2541 1229 2541 1555 
Q 2541 1882 2349 2086 
Q 2157 2291 1850 2291 
Q 1542 2291 1344 2083 
Q 1146 1875 1146 1555 
Q 1146 1229 1341 1024 
Q 1536 819 1843 819 
z
" transform="scale(0.015625)"/>
     <path id="Outfit-Bold-67" d="M 1619 96 
Q 1190 96 857 301 
Q 525 506 333 854 
Q 141 1203 141 1638 
Q 141 2074 333 2419 
Q 525 2765 857 2969 
Q 1190 3174 1619 3174 
Q 1856 3174 2064 3104 
Q 2272 3034 2432 2899 
L 2432 3110 
L 3392 3110 
L 3392 186 
Q 3392 -294 3168 -649 
Q 2944 -1005 2553 -1200 
Q 2163 -1395 1664 -1395 
Q 1152 -1395 765 -1219 
Q 378 -1043 154 -723 
L 755 -122 
Q 922 -320 1130 -422 
Q 1338 -525 1632 -525 
Q 1997 -525 2205 -345 
Q 2413 -166 2413 160 
L 2413 358 
Q 2259 237 2054 166 
Q 1850 96 1619 96 
z
M 1805 966 
Q 2112 966 2291 1158 
Q 2470 1350 2470 1638 
Q 2470 1926 2291 2121 
Q 2112 2317 1805 2317 
Q 1498 2317 1315 2118 
Q 1133 1920 1133 1638 
Q 1133 1363 1315 1164 
Q 1498 966 1805 966 
z
" transform="scale(0.015625)"/>
    </defs>
    <use xlink:href="#Outfit-Bold-44"/>
    <use xlink:href="#Outfit-Bold-69" x="75.399994"/>
    <use xlink:href="#Outfit-Bold-73" x="101.499985"/>
    <use xlink:href="#Outfit-Bold-74" x="147.299973"/>
    <use xlink:href="#Outfit-Bold-72" x="187.199966"/>
    <use xlink:href="#Outfit-Bold-69" x="231.59996"/>
    <use xlink:href="#Outfit-Bold-62" x="257.699951"/>
    <use xlink:href="#Outfit-Bold-75" x="317.199936"/>
    <use xlink:href="#Outfit-Bold-74" x="371.09993"/>
    <use xlink:href="#Outfit-Bold-69" x="410.999924"/>
    <use xlink:href="#Outfit-Bold-6f" x="437.099915"/>
    <use xlink:href="#Outfit-Bold-6e" x="494.699905"/>
    <use xlink:href="#Outfit-Bold-20" x="551.899902"/>
    <use xlink:href="#Outfit-Bold-6f" x="570.899887"/>
    <use xlink:href="#Outfit-Bold-66" x="628.499878"/>
    <use xlink:href="#Outfit-Bold-20" x="672.099869"/>
    <use xlink:href="#Outfit-Bold-55" x="691.099854"/>
    <use xlink:href="#Outfit-Bold-6e" x="761.299835"/>
    <use xlink:href="#Outfit-Bold-69" x="818.499832"/>
    <use xlink:href="#Outfit-Bold-71" x="844.599823"/>
    <use xlink:href="#Outfit-Bold-75" x="904.099808"/>
    <use xlink:href="#Outfit-Bold-65" x="957.999802"/>
    <use xlink:href="#Outfit-Bold-20" x="1012.799789"/>
    <use xlink:href="#Outfit-Bold-49" x="1031.799774"/>
    <use xlink:href="#Outfit-Bold-50" x="1061.099762"/>
    <use xlink:href="#Outfit-Bold-73" x="1123.89975"/>
    <use xlink:href="#Outfit-Bold-20" x="1169.699738"/>
    <use xlink:href="#Outfit-Bold-55" x="1188.699722"/>
    <use xlink:href="#Outfit-Bold-73" x="1258.899704"/>
    <use xlink:href="#Outfit-Bold-65" x="1304.699692"/>
    <use xlink:href="#Outfit-Bold-64" x="1359.49968"/>
    <use xlink:href="#Outfit-Bold-20" x="1418.999664"/>
    <use xlink:href="#Outfit-Bold-69" x="1437.999649"/>
    <use xlink:href="#Outfit-Bold-6e" x="1464.09964"/>
    <use xlink:href="#Outfit-Bold-20" x="1521.299637"/>
    <use xlink:href="#Outfit-Bold-41" x="1540.299622"/>
    <use xlink:href="#Outfit-Bold-6c" x="1613.199615"/>
    <use xlink:href="#Outfit-Bold-6c" x="1639.299606"/>
    <use xlink:href="#Outfit-Bold-20" x="1665.399597"/>
    <use xlink:href="#Outfit-Bold-43" x="1684.399582"/>
    <use xlink:href="#Outfit-Bold-61" x="1753.299576"/>
    <use xlink:href="#Outfit-Bold-74" x="1812.799561"/>
    <use xlink:href="#Outfit-Bold-65" x="1852.699554"/>
    <use xlink:href="#Outfit-Bold-67" x="1907.499542"/>
    <use xlink:href="#Outfit-Bold-6f" x="1965.899536"/>
    <use xlink:href="#Outfit-Bold-72" x="2023.499527"/>
    <use xlink:href="#Outfit-Bold-69" x="2067.899521"/>
    <use xlink:href="#Outfit-Bold-65" x="2093.999512"/>
    <use xlink:href="#Outfit-Bold-73" x="2148.7995"/>
   </g>
  </g>
  <g id="text_15">
   <!-- This box plot shows the distribution of the number of unique IPs used by users in different categories of transactions.  -->
   <g transform="translate(23.8518 40.12275) scale(0.12 -0.12)">
    <defs>
     <path id="Outfit-Thin-54" d="M 1958 0 
L 1958 4205 
L 2163 4205 
L 2163 0 
L 1958 0 
z
M 314 4141 
L 314 4326 
L 3808 4326 
L 3808 4141 
L 314 4141 
z
" transform="scale(0.015625)"/>
     <path id="Outfit-Thin-68" d="M 2790 0 
L 2790 1760 
Q 2790 2240 2515 2534 
Q 2240 2829 1779 2829 
Q 1466 2829 1226 2691 
Q 986 2554 848 2317 
Q 710 2080 710 1766 
L 576 1843 
Q 576 2176 739 2438 
Q 902 2701 1180 2854 
Q 1459 3008 1811 3008 
Q 2163 3008 2428 2848 
Q 2694 2688 2841 2406 
Q 2989 2125 2989 1760 
L 2989 0 
L 2790 0 
z
M 512 0 
L 512 4454 
L 710 4454 
L 710 0 
L 512 0 
z
" transform="scale(0.015625)"/>
     <path id="Outfit-Thin-69" d="M 512 0 
L 512 2944 
L 710 2944 
L 710 0 
L 512 0 
z
M 608 3680 
Q 525 3680 467 3744 
Q 410 3808 410 3891 
Q 410 3981 467 4038 
Q 525 4096 608 4096 
Q 698 4096 758 4038 
Q 819 3981 819 3891 
Q 819 3808 758 3744 
Q 698 3680 608 3680 
z
" transform="scale(0.015625)"/>
     <path id="Outfit-Thin-73" d="M 1357 -64 
Q 1120 -64 912 3 
Q 704 70 537 188 
Q 371 307 243 461 
L 378 602 
Q 570 352 819 233 
Q 1069 115 1363 115 
Q 1728 115 1945 272 
Q 2163 429 2163 704 
Q 2163 947 2038 1088 
Q 1914 1229 1715 1305 
Q 1517 1382 1296 1446 
Q 1075 1510 876 1596 
Q 678 1683 553 1840 
Q 429 1997 429 2266 
Q 429 2483 544 2649 
Q 659 2816 870 2912 
Q 1082 3008 1370 3008 
Q 1683 3008 1945 2896 
Q 2208 2784 2355 2573 
L 2221 2438 
Q 2093 2618 1862 2723 
Q 1632 2829 1350 2829 
Q 992 2829 806 2669 
Q 621 2509 621 2272 
Q 621 2048 745 1920 
Q 870 1792 1068 1721 
Q 1267 1651 1488 1590 
Q 1709 1530 1907 1437 
Q 2106 1344 2230 1181 
Q 2355 1018 2355 730 
Q 2355 365 2083 150 
Q 1811 -64 1357 -64 
z
" transform="scale(0.015625)"/>
     <path id="Outfit-Thin-20" transform="scale(0.015625)"/>
     <path id="Outfit-Thin-62" d="M 1978 -64 
Q 1645 -64 1366 64 
Q 1088 192 893 425 
Q 698 659 621 973 
L 621 1978 
Q 698 2304 896 2534 
Q 1094 2765 1376 2886 
Q 1658 3008 1978 3008 
Q 2400 3008 2729 2806 
Q 3059 2605 3251 2256 
Q 3443 1907 3443 1466 
Q 3443 1030 3254 684 
Q 3066 339 2733 137 
Q 2400 -64 1978 -64 
z
M 512 0 
L 512 4454 
L 710 4454 
L 710 2227 
L 646 1517 
L 710 787 
L 710 0 
L 512 0 
z
M 1939 122 
Q 2323 122 2614 294 
Q 2906 467 3072 774 
Q 3238 1082 3238 1472 
Q 3238 1869 3072 2173 
Q 2906 2477 2618 2649 
Q 2330 2822 1958 2822 
Q 1587 2822 1305 2649 
Q 1024 2477 864 2173 
Q 704 1869 704 1466 
Q 704 1075 861 771 
Q 1018 467 1296 294 
Q 1574 122 1939 122 
z
" transform="scale(0.015625)"/>
     <path id="Outfit-Thin-6f" d="M 1837 -64 
Q 1408 -64 1065 141 
Q 723 346 521 698 
Q 320 1050 320 1485 
Q 320 1914 521 2259 
Q 723 2605 1065 2806 
Q 1408 3008 1837 3008 
Q 2259 3008 2601 2806 
Q 2944 2605 3145 2259 
Q 3347 1914 3347 1485 
Q 3347 1043 3145 694 
Q 2944 346 2601 141 
Q 2259 -64 1837 -64 
z
M 1837 122 
Q 2208 122 2502 301 
Q 2797 480 2969 790 
Q 3142 1101 3142 1491 
Q 3142 1869 2969 2169 
Q 2797 2470 2502 2646 
Q 2208 2822 1837 2822 
Q 1466 2822 1168 2646 
Q 870 2470 697 2169 
Q 525 1869 525 1485 
Q 525 1094 697 787 
Q 870 480 1168 301 
Q 1466 122 1837 122 
z
" transform="scale(0.015625)"/>
     <path id="Outfit-Thin-78" d="M 2669 0 
L 1536 1434 
L 1478 1478 
L 250 2944 
L 506 2944 
L 1594 1619 
L 1651 1581 
L 2925 0 
L 2669 0 
z
M 198 0 
L 1491 1581 
L 1581 1421 
L 448 0 
L 198 0 
z
M 1645 1478 
L 1555 1626 
L 2624 2944 
L 2874 2944 
L 1645 1478 
z
" transform="scale(0.015625)"/>
     <path id="Outfit-Thin-70" d="M 1978 -64 
Q 1645 -64 1366 64 
Q 1088 192 893 425 
Q 698 659 621 973 
L 621 1978 
Q 698 2304 896 2534 
Q 1094 2765 1376 2886 
Q 1658 3008 1978 3008 
Q 2400 3008 2729 2806 
Q 3059 2605 3251 2256 
Q 3443 1907 3443 1466 
Q 3443 1030 3254 684 
Q 3066 339 2733 137 
Q 2400 -64 1978 -64 
z
M 512 -1254 
L 512 2944 
L 710 2944 
L 710 2227 
L 646 1517 
L 710 787 
L 710 -1254 
L 512 -1254 
z
M 1939 122 
Q 2323 122 2614 294 
Q 2906 467 3072 774 
Q 3238 1082 3238 1472 
Q 3238 1869 3072 2173 
Q 2906 2477 2618 2649 
Q 2330 2822 1958 2822 
Q 1587 2822 1305 2649 
Q 1024 2477 864 2173 
Q 704 1869 704 1466 
Q 704 1075 861 771 
Q 1018 467 1296 294 
Q 1574 122 1939 122 
z
" transform="scale(0.015625)"/>
     <path id="Outfit-Thin-6c" d="M 512 0 
L 512 4454 
L 710 4454 
L 710 0 
L 512 0 
z
" transform="scale(0.015625)"/>
     <path id="Outfit-Thin-74" d="M 979 0 
L 979 4198 
L 1178 4198 
L 1178 0 
L 979 0 
z
M 198 2771 
L 198 2944 
L 1952 2944 
L 1952 2771 
L 198 2771 
z
" transform="scale(0.015625)"/>
     <path id="Outfit-Thin-77" d="M 1299 0 
L 211 2944 
L 422 2944 
L 1414 179 
L 1299 179 
L 2304 2944 
L 2419 2944 
L 3424 179 
L 3309 179 
L 4301 2944 
L 4512 2944 
L 3424 0 
L 3302 0 
L 2285 2803 
L 2438 2803 
L 1421 0 
L 1299 0 
z
" transform="scale(0.015625)"/>
     <path id="Outfit-Thin-65" d="M 1862 -64 
Q 1421 -64 1072 137 
Q 723 339 521 688 
Q 320 1037 320 1478 
Q 320 1914 515 2259 
Q 710 2605 1052 2806 
Q 1395 3008 1824 3008 
Q 2221 3008 2525 2832 
Q 2829 2656 3001 2342 
Q 3174 2029 3174 1619 
Q 3174 1594 3171 1539 
Q 3168 1485 3155 1402 
L 461 1402 
L 461 1587 
L 3027 1587 
L 2970 1542 
Q 2995 1920 2854 2208 
Q 2714 2496 2448 2659 
Q 2182 2822 1818 2822 
Q 1434 2822 1142 2652 
Q 851 2483 688 2185 
Q 525 1888 525 1491 
Q 525 1082 694 774 
Q 864 467 1171 294 
Q 1478 122 1888 122 
Q 2195 122 2454 237 
Q 2714 352 2893 582 
L 3027 448 
Q 2829 211 2525 73 
Q 2221 -64 1862 -64 
z
" transform="scale(0.015625)"/>
     <path id="Outfit-Thin-64" d="M 1792 -64 
Q 1370 -64 1040 137 
Q 710 339 518 684 
Q 326 1030 326 1466 
Q 326 1907 518 2256 
Q 710 2605 1043 2806 
Q 1376 3008 1792 3008 
Q 2112 3008 2393 2886 
Q 2675 2765 2876 2534 
Q 3078 2304 3149 1978 
L 3149 973 
Q 3072 659 2877 425 
Q 2682 192 2403 64 
Q 2125 -64 1792 -64 
z
M 1830 122 
Q 2195 122 2473 294 
Q 2752 467 2909 771 
Q 3066 1075 3066 1466 
Q 3066 1869 2906 2173 
Q 2746 2477 2464 2649 
Q 2182 2822 1811 2822 
Q 1440 2822 1152 2649 
Q 864 2477 697 2173 
Q 531 1869 531 1472 
Q 531 1082 697 774 
Q 864 467 1158 294 
Q 1453 122 1830 122 
z
M 3258 0 
L 3059 0 
L 3059 787 
L 3123 1517 
L 3059 2227 
L 3059 4454 
L 3258 4454 
L 3258 0 
z
" transform="scale(0.015625)"/>
     <path id="Outfit-Thin-72" d="M 512 0 
L 512 2944 
L 710 2944 
L 710 0 
L 512 0 
z
M 710 1798 
L 576 1837 
Q 576 2400 873 2704 
Q 1171 3008 1619 3008 
Q 1837 3008 2025 2931 
Q 2214 2854 2374 2688 
L 2240 2541 
Q 2106 2688 1949 2752 
Q 1792 2816 1587 2816 
Q 1197 2816 953 2550 
Q 710 2285 710 1798 
z
" transform="scale(0.015625)"/>
     <path id="Outfit-Thin-75" d="M 1638 -64 
Q 1293 -64 1021 99 
Q 749 262 595 553 
Q 442 845 442 1229 
L 442 2944 
L 640 2944 
L 640 1235 
Q 640 909 765 656 
Q 890 403 1117 259 
Q 1344 115 1638 115 
Q 2086 115 2361 428 
Q 2637 742 2637 1235 
L 2637 2944 
L 2835 2944 
L 2835 1229 
Q 2835 851 2681 556 
Q 2528 262 2259 99 
Q 1990 -64 1638 -64 
z
" transform="scale(0.015625)"/>
     <path id="Outfit-Thin-6e" d="M 2790 0 
L 2790 1760 
Q 2790 2240 2515 2534 
Q 2240 2829 1779 2829 
Q 1466 2829 1226 2691 
Q 986 2554 848 2317 
Q 710 2080 710 1766 
L 576 1843 
Q 576 2176 739 2438 
Q 902 2701 1180 2854 
Q 1459 3008 1811 3008 
Q 2163 3008 2428 2848 
Q 2694 2688 2841 2406 
Q 2989 2125 2989 1760 
L 2989 0 
L 2790 0 
z
M 512 0 
L 512 2944 
L 710 2944 
L 710 0 
L 512 0 
z
" transform="scale(0.015625)"/>
     <path id="Outfit-Thin-66" d="M 979 0 
L 979 3558 
Q 979 3840 1097 4054 
Q 1216 4269 1427 4390 
Q 1638 4512 1907 4512 
Q 2112 4512 2285 4438 
Q 2458 4365 2586 4230 
L 2451 4096 
Q 2330 4224 2192 4278 
Q 2054 4333 1901 4333 
Q 1562 4333 1370 4115 
Q 1178 3898 1178 3533 
L 1178 0 
L 979 0 
z
M 198 2771 
L 198 2944 
L 2266 2944 
L 2266 2771 
L 198 2771 
z
" transform="scale(0.015625)"/>
     <path id="Outfit-Thin-6d" d="M 512 0 
L 512 2944 
L 710 2944 
L 710 0 
L 512 0 
z
M 2611 0 
L 2611 1856 
Q 2611 2291 2355 2560 
Q 2099 2829 1696 2829 
Q 1427 2829 1203 2707 
Q 979 2586 844 2371 
Q 710 2157 710 1869 
L 576 1875 
Q 576 2214 726 2470 
Q 877 2726 1136 2867 
Q 1395 3008 1715 3008 
Q 2029 3008 2275 2867 
Q 2522 2726 2666 2470 
Q 2810 2214 2810 1869 
L 2810 0 
L 2611 0 
z
M 4710 0 
L 4710 1856 
Q 4710 2291 4454 2560 
Q 4198 2829 3795 2829 
Q 3526 2829 3302 2707 
Q 3078 2586 2944 2371 
Q 2810 2157 2810 1869 
L 2675 1875 
Q 2675 2221 2828 2473 
Q 2982 2726 3241 2867 
Q 3501 3008 3814 3008 
Q 4128 3008 4374 2867 
Q 4621 2726 4765 2467 
Q 4909 2208 4909 1862 
L 4909 0 
L 4710 0 
z
" transform="scale(0.015625)"/>
     <path id="Outfit-Thin-71" d="M 1843 -64 
Q 1408 -64 1065 137 
Q 723 339 524 684 
Q 326 1030 326 1466 
Q 326 1901 524 2249 
Q 723 2598 1062 2803 
Q 1402 3008 1830 3008 
Q 2170 3008 2442 2883 
Q 2714 2758 2896 2528 
Q 3078 2298 3149 1978 
L 3149 973 
Q 3072 653 2889 419 
Q 2707 186 2441 61 
Q 2176 -64 1843 -64 
z
M 1869 122 
Q 2419 122 2745 490 
Q 3072 858 3072 1466 
Q 3072 1875 2921 2179 
Q 2771 2483 2496 2652 
Q 2221 2822 1856 2822 
Q 1472 2822 1174 2646 
Q 877 2470 704 2166 
Q 531 1862 531 1472 
Q 531 1082 704 778 
Q 877 474 1181 298 
Q 1485 122 1869 122 
z
M 3066 -1254 
L 3066 787 
L 3123 1517 
L 3066 2227 
L 3066 2944 
L 3264 2944 
L 3264 -1254 
L 3066 -1254 
z
" transform="scale(0.015625)"/>
     <path id="Outfit-Thin-49" d="M 634 0 
L 634 4326 
L 838 4326 
L 838 0 
L 634 0 
z
" transform="scale(0.015625)"/>
     <path id="Outfit-Thin-50" d="M 736 1843 
L 736 2029 
L 2208 2029 
Q 2528 2029 2777 2157 
Q 3027 2285 3171 2521 
Q 3315 2758 3315 3085 
Q 3315 3411 3171 3648 
Q 3027 3885 2777 4013 
Q 2528 4141 2208 4141 
L 736 4141 
L 736 4326 
L 2240 4326 
Q 2611 4326 2899 4172 
Q 3187 4019 3356 3740 
Q 3526 3462 3526 3085 
Q 3526 2707 3356 2428 
Q 3187 2150 2899 1996 
Q 2611 1843 2240 1843 
L 736 1843 
z
M 634 0 
L 634 4326 
L 838 4326 
L 838 0 
L 634 0 
z
" transform="scale(0.015625)"/>
     <path id="Outfit-Thin-79" d="M 1536 0 
L 205 2944 
L 422 2944 
L 1651 179 
L 1504 179 
L 2790 2944 
L 3008 2944 
L 1613 0 
L 1536 0 
z
M 806 -1254 
L 1510 192 
L 1613 0 
L 1018 -1254 
L 806 -1254 
z
" transform="scale(0.015625)"/>
     <path id="Outfit-Thin-63" d="M 1837 -64 
Q 1408 -64 1065 141 
Q 723 346 521 698 
Q 320 1050 320 1485 
Q 320 1914 521 2259 
Q 723 2605 1065 2806 
Q 1408 3008 1837 3008 
Q 2157 3008 2435 2889 
Q 2714 2771 2912 2560 
L 2778 2426 
Q 2605 2611 2361 2716 
Q 2118 2822 1837 2822 
Q 1466 2822 1168 2646 
Q 870 2470 697 2169 
Q 525 1869 525 1485 
Q 525 1094 697 787 
Q 870 480 1168 301 
Q 1466 122 1837 122 
Q 2125 122 2371 227 
Q 2618 333 2797 525 
L 2931 390 
Q 2726 173 2441 54 
Q 2157 -64 1837 -64 
z
" transform="scale(0.015625)"/>
     <path id="Outfit-Thin-61" d="M 1837 -64 
Q 1402 -64 1059 137 
Q 717 339 518 684 
Q 320 1030 320 1466 
Q 320 1901 518 2249 
Q 717 2598 1056 2803 
Q 1395 3008 1824 3008 
Q 2163 3008 2435 2883 
Q 2707 2758 2889 2528 
Q 3072 2298 3142 1978 
L 3142 973 
Q 3066 653 2883 419 
Q 2701 186 2435 61 
Q 2170 -64 1837 -64 
z
M 1862 122 
Q 2413 122 2739 490 
Q 3066 858 3066 1466 
Q 3066 1875 2915 2179 
Q 2765 2483 2489 2652 
Q 2214 2822 1850 2822 
Q 1466 2822 1168 2646 
Q 870 2470 697 2166 
Q 525 1862 525 1472 
Q 525 1082 697 778 
Q 870 474 1174 298 
Q 1478 122 1862 122 
z
M 3059 0 
L 3059 787 
L 3117 1517 
L 3059 2227 
L 3059 2944 
L 3258 2944 
L 3258 0 
L 3059 0 
z
" transform="scale(0.015625)"/>
     <path id="Outfit-Thin-67" d="M 1722 -1318 
Q 1299 -1318 953 -1158 
Q 608 -998 397 -698 
L 518 -576 
Q 691 -826 1004 -979 
Q 1318 -1133 1728 -1133 
Q 2342 -1133 2704 -797 
Q 3066 -461 3066 109 
L 3066 858 
L 3123 1549 
L 3066 2221 
L 3066 2944 
L 3264 2944 
L 3264 109 
Q 3264 -320 3072 -640 
Q 2880 -960 2531 -1139 
Q 2182 -1318 1722 -1318 
z
M 1818 0 
Q 1389 0 1053 195 
Q 717 390 521 729 
Q 326 1069 326 1504 
Q 326 1933 518 2272 
Q 710 2611 1046 2809 
Q 1382 3008 1805 3008 
Q 2144 3008 2422 2883 
Q 2701 2758 2889 2528 
Q 3078 2298 3149 1978 
L 3149 1024 
Q 3072 710 2883 480 
Q 2694 250 2422 125 
Q 2150 0 1818 0 
z
M 1843 186 
Q 2208 186 2486 349 
Q 2765 512 2918 809 
Q 3072 1107 3072 1504 
Q 3072 1894 2915 2188 
Q 2758 2483 2480 2652 
Q 2202 2822 1830 2822 
Q 1453 2822 1158 2652 
Q 864 2483 697 2188 
Q 531 1894 531 1510 
Q 531 1126 700 825 
Q 870 525 1164 355 
Q 1459 186 1843 186 
z
" transform="scale(0.015625)"/>
     <path id="Outfit-Thin-2e" d="M 922 -64 
Q 813 -64 739 16 
Q 666 96 666 198 
Q 666 307 739 380 
Q 813 454 922 454 
Q 1030 454 1104 380 
Q 1178 307 1178 198 
Q 1178 96 1104 16 
Q 1030 -64 922 -64 
z
" transform="scale(0.015625)"/>
    </defs>
    <use xlink:href="#Outfit-Thin-54"/>
    <use xlink:href="#Outfit-Thin-68" x="64.399994"/>
    <use xlink:href="#Outfit-Thin-69" x="118.099991"/>
    <use xlink:href="#Outfit-Thin-73" x="137.299988"/>
    <use xlink:href="#Outfit-Thin-20" x="178.999985"/>
    <use xlink:href="#Outfit-Thin-62" x="201.999969"/>
    <use xlink:href="#Outfit-Thin-6f" x="260.899963"/>
    <use xlink:href="#Outfit-Thin-78" x="318.199951"/>
    <use xlink:href="#Outfit-Thin-20" x="366.999939"/>
    <use xlink:href="#Outfit-Thin-70" x="389.999924"/>
    <use xlink:href="#Outfit-Thin-6c" x="448.899918"/>
    <use xlink:href="#Outfit-Thin-6f" x="467.999908"/>
    <use xlink:href="#Outfit-Thin-74" x="525.299896"/>
    <use xlink:href="#Outfit-Thin-20" x="558.899887"/>
    <use xlink:href="#Outfit-Thin-73" x="581.899872"/>
    <use xlink:href="#Outfit-Thin-68" x="623.599869"/>
    <use xlink:href="#Outfit-Thin-6f" x="677.299866"/>
    <use xlink:href="#Outfit-Thin-77" x="734.599854"/>
    <use xlink:href="#Outfit-Thin-73" x="808.399841"/>
    <use xlink:href="#Outfit-Thin-20" x="850.099838"/>
    <use xlink:href="#Outfit-Thin-74" x="873.099823"/>
    <use xlink:href="#Outfit-Thin-68" x="906.699814"/>
    <use xlink:href="#Outfit-Thin-65" x="960.399811"/>
    <use xlink:href="#Outfit-Thin-20" x="1014.599808"/>
    <use xlink:href="#Outfit-Thin-64" x="1037.599792"/>
    <use xlink:href="#Outfit-Thin-69" x="1096.499786"/>
    <use xlink:href="#Outfit-Thin-73" x="1115.699783"/>
    <use xlink:href="#Outfit-Thin-74" x="1157.39978"/>
    <use xlink:href="#Outfit-Thin-72" x="1190.999771"/>
    <use xlink:href="#Outfit-Thin-69" x="1231.199768"/>
    <use xlink:href="#Outfit-Thin-62" x="1250.399765"/>
    <use xlink:href="#Outfit-Thin-75" x="1309.299759"/>
    <use xlink:href="#Outfit-Thin-74" x="1360.499756"/>
    <use xlink:href="#Outfit-Thin-69" x="1394.099747"/>
    <use xlink:href="#Outfit-Thin-6f" x="1413.299744"/>
    <use xlink:href="#Outfit-Thin-6e" x="1470.599731"/>
    <use xlink:href="#Outfit-Thin-20" x="1524.299728"/>
    <use xlink:href="#Outfit-Thin-6f" x="1547.299713"/>
    <use xlink:href="#Outfit-Thin-66" x="1604.599701"/>
    <use xlink:href="#Outfit-Thin-20" x="1643.199692"/>
    <use xlink:href="#Outfit-Thin-74" x="1666.199677"/>
    <use xlink:href="#Outfit-Thin-68" x="1699.799667"/>
    <use xlink:href="#Outfit-Thin-65" x="1753.499664"/>
    <use xlink:href="#Outfit-Thin-20" x="1807.699661"/>
    <use xlink:href="#Outfit-Thin-6e" x="1830.699646"/>
    <use xlink:href="#Outfit-Thin-75" x="1884.399643"/>
    <use xlink:href="#Outfit-Thin-6d" x="1935.59964"/>
    <use xlink:href="#Outfit-Thin-62" x="2019.299622"/>
    <use xlink:href="#Outfit-Thin-65" x="2078.199615"/>
    <use xlink:href="#Outfit-Thin-72" x="2132.399612"/>
    <use xlink:href="#Outfit-Thin-20" x="2172.599609"/>
    <use xlink:href="#Outfit-Thin-6f" x="2195.599594"/>
    <use xlink:href="#Outfit-Thin-66" x="2252.899582"/>
    <use xlink:href="#Outfit-Thin-20" x="2291.499573"/>
    <use xlink:href="#Outfit-Thin-75" x="2314.499557"/>
    <use xlink:href="#Outfit-Thin-6e" x="2365.699554"/>
    <use xlink:href="#Outfit-Thin-69" x="2419.399551"/>
    <use xlink:href="#Outfit-Thin-71" x="2438.599548"/>
    <use xlink:href="#Outfit-Thin-75" x="2497.599533"/>
    <use xlink:href="#Outfit-Thin-65" x="2548.79953"/>
    <use xlink:href="#Outfit-Thin-20" x="2602.999527"/>
    <use xlink:href="#Outfit-Thin-49" x="2625.999512"/>
    <use xlink:href="#Outfit-Thin-50" x="2648.999496"/>
    <use xlink:href="#Outfit-Thin-73" x="2710.099487"/>
    <use xlink:href="#Outfit-Thin-20" x="2751.799484"/>
    <use xlink:href="#Outfit-Thin-75" x="2774.799469"/>
    <use xlink:href="#Outfit-Thin-73" x="2825.999466"/>
    <use xlink:href="#Outfit-Thin-65" x="2867.699463"/>
    <use xlink:href="#Outfit-Thin-64" x="2921.89946"/>
    <use xlink:href="#Outfit-Thin-20" x="2980.799454"/>
    <use xlink:href="#Outfit-Thin-62" x="3003.799438"/>
    <use xlink:href="#Outfit-Thin-79" x="3062.699432"/>
    <use xlink:href="#Outfit-Thin-20" x="3112.899429"/>
    <use xlink:href="#Outfit-Thin-75" x="3135.899414"/>
    <use xlink:href="#Outfit-Thin-73" x="3187.099411"/>
    <use xlink:href="#Outfit-Thin-65" x="3228.799408"/>
    <use xlink:href="#Outfit-Thin-72" x="3282.999405"/>
    <use xlink:href="#Outfit-Thin-73" x="3323.199402"/>
    <use xlink:href="#Outfit-Thin-20" x="3364.899399"/>
    <use xlink:href="#Outfit-Thin-69" x="3387.899384"/>
    <use xlink:href="#Outfit-Thin-6e" x="3407.09938"/>
    <use xlink:href="#Outfit-Thin-20" x="3460.799377"/>
    <use xlink:href="#Outfit-Thin-64" x="3483.799362"/>
    <use xlink:href="#Outfit-Thin-69" x="3542.699356"/>
    <use xlink:href="#Outfit-Thin-66" x="3561.899353"/>
    <use xlink:href="#Outfit-Thin-66" x="3600.499344"/>
    <use xlink:href="#Outfit-Thin-65" x="3639.099335"/>
    <use xlink:href="#Outfit-Thin-72" x="3693.299332"/>
    <use xlink:href="#Outfit-Thin-65" x="3733.499329"/>
    <use xlink:href="#Outfit-Thin-6e" x="3787.699326"/>
    <use xlink:href="#Outfit-Thin-74" x="3841.399323"/>
    <use xlink:href="#Outfit-Thin-20" x="3874.999313"/>
    <use xlink:href="#Outfit-Thin-63" x="3897.999298"/>
    <use xlink:href="#Outfit-Thin-61" x="3947.499283"/>
    <use xlink:href="#Outfit-Thin-74" x="4006.399277"/>
    <use xlink:href="#Outfit-Thin-65" x="4039.999268"/>
    <use xlink:href="#Outfit-Thin-67" x="4094.199265"/>
    <use xlink:href="#Outfit-Thin-6f" x="4153.099258"/>
    <use xlink:href="#Outfit-Thin-72" x="4210.399246"/>
    <use xlink:href="#Outfit-Thin-69" x="4250.599243"/>
    <use xlink:href="#Outfit-Thin-65" x="4269.79924"/>
    <use xlink:href="#Outfit-Thin-73" x="4323.999237"/>
    <use xlink:href="#Outfit-Thin-20" x="4365.699234"/>
    <use xlink:href="#Outfit-Thin-6f" x="4388.699219"/>
    <use xlink:href="#Outfit-Thin-66" x="4445.999207"/>
    <use xlink:href="#Outfit-Thin-20" x="4484.599197"/>
    <use xlink:href="#Outfit-Thin-74" x="4507.599182"/>
    <use xlink:href="#Outfit-Thin-72" x="4541.199173"/>
    <use xlink:href="#Outfit-Thin-61" x="4581.39917"/>
    <use xlink:href="#Outfit-Thin-6e" x="4640.299164"/>
    <use xlink:href="#Outfit-Thin-73" x="4693.999161"/>
    <use xlink:href="#Outfit-Thin-61" x="4735.699158"/>
    <use xlink:href="#Outfit-Thin-63" x="4794.599152"/>
    <use xlink:href="#Outfit-Thin-74" x="4844.099136"/>
    <use xlink:href="#Outfit-Thin-69" x="4877.699127"/>
    <use xlink:href="#Outfit-Thin-6f" x="4896.899124"/>
    <use xlink:href="#Outfit-Thin-6e" x="4954.199112"/>
    <use xlink:href="#Outfit-Thin-73" x="5007.899109"/>
    <use xlink:href="#Outfit-Thin-2e" x="5049.599106"/>
    <use xlink:href="#Outfit-Thin-20" x="5078.399094"/>
   </g>
   <!-- The spread of the data is visualized with quartiles, while outliers are marked separately. -->
   <g transform="translate(23.8518 52.746) scale(0.12 -0.12)">
    <defs>
     <path id="Outfit-Thin-76" d="M 1581 0 
L 198 2944 
L 416 2944 
L 1696 179 
L 1587 179 
L 2874 2944 
L 3091 2944 
L 1696 0 
L 1581 0 
z
" transform="scale(0.015625)"/>
     <path id="Outfit-Thin-7a" d="M 224 109 
L 2304 2835 
L 2541 2835 
L 461 109 
L 224 109 
z
M 224 0 
L 224 109 
L 358 173 
L 2509 173 
L 2509 0 
L 224 0 
z
M 326 2771 
L 326 2944 
L 2541 2944 
L 2541 2835 
L 2342 2771 
L 326 2771 
z
" transform="scale(0.015625)"/>
     <path id="Outfit-Thin-2c" d="M 640 -570 
L 934 38 
L 1024 51 
Q 1011 6 972 -22 
Q 934 -51 870 -51 
Q 774 -51 700 19 
Q 627 90 627 192 
Q 627 301 707 377 
Q 787 454 896 454 
Q 998 454 1075 377 
Q 1152 301 1152 192 
Q 1152 147 1142 86 
Q 1133 26 1082 -77 
L 794 -653 
L 640 -570 
z
" transform="scale(0.015625)"/>
     <path id="Outfit-Thin-6b" d="M 2445 0 
L 666 1517 
L 2400 2944 
L 2675 2944 
L 870 1466 
L 870 1574 
L 2733 0 
L 2445 0 
z
M 512 0 
L 512 4454 
L 710 4454 
L 710 0 
L 512 0 
z
" transform="scale(0.015625)"/>
    </defs>
    <use xlink:href="#Outfit-Thin-54"/>
    <use xlink:href="#Outfit-Thin-68" x="64.399994"/>
    <use xlink:href="#Outfit-Thin-65" x="118.099991"/>
    <use xlink:href="#Outfit-Thin-20" x="172.299988"/>
    <use xlink:href="#Outfit-Thin-73" x="195.299973"/>
    <use xlink:href="#Outfit-Thin-70" x="236.999969"/>
    <use xlink:href="#Outfit-Thin-72" x="295.899963"/>
    <use xlink:href="#Outfit-Thin-65" x="336.09996"/>
    <use xlink:href="#Outfit-Thin-61" x="390.299957"/>
    <use xlink:href="#Outfit-Thin-64" x="449.199951"/>
    <use xlink:href="#Outfit-Thin-20" x="508.099945"/>
    <use xlink:href="#Outfit-Thin-6f" x="531.09993"/>
    <use xlink:href="#Outfit-Thin-66" x="588.399918"/>
    <use xlink:href="#Outfit-Thin-20" x="626.999908"/>
    <use xlink:href="#Outfit-Thin-74" x="649.999893"/>
    <use xlink:href="#Outfit-Thin-68" x="683.599884"/>
    <use xlink:href="#Outfit-Thin-65" x="737.299881"/>
    <use xlink:href="#Outfit-Thin-20" x="791.499878"/>
    <use xlink:href="#Outfit-Thin-64" x="814.499863"/>
    <use xlink:href="#Outfit-Thin-61" x="873.399857"/>
    <use xlink:href="#Outfit-Thin-74" x="932.29985"/>
    <use xlink:href="#Outfit-Thin-61" x="965.899841"/>
    <use xlink:href="#Outfit-Thin-20" x="1024.799835"/>
    <use xlink:href="#Outfit-Thin-69" x="1047.79982"/>
    <use xlink:href="#Outfit-Thin-73" x="1066.999817"/>
    <use xlink:href="#Outfit-Thin-20" x="1108.699814"/>
    <use xlink:href="#Outfit-Thin-76" x="1131.699799"/>
    <use xlink:href="#Outfit-Thin-69" x="1183.099792"/>
    <use xlink:href="#Outfit-Thin-73" x="1202.299789"/>
    <use xlink:href="#Outfit-Thin-75" x="1243.999786"/>
    <use xlink:href="#Outfit-Thin-61" x="1295.199783"/>
    <use xlink:href="#Outfit-Thin-6c" x="1354.099777"/>
    <use xlink:href="#Outfit-Thin-69" x="1373.199768"/>
    <use xlink:href="#Outfit-Thin-7a" x="1392.399765"/>
    <use xlink:href="#Outfit-Thin-65" x="1435.699753"/>
    <use xlink:href="#Outfit-Thin-64" x="1489.89975"/>
    <use xlink:href="#Outfit-Thin-20" x="1548.799744"/>
    <use xlink:href="#Outfit-Thin-77" x="1571.799728"/>
    <use xlink:href="#Outfit-Thin-69" x="1645.599716"/>
    <use xlink:href="#Outfit-Thin-74" x="1664.799713"/>
    <use xlink:href="#Outfit-Thin-68" x="1698.399704"/>
    <use xlink:href="#Outfit-Thin-20" x="1752.099701"/>
    <use xlink:href="#Outfit-Thin-71" x="1775.099686"/>
    <use xlink:href="#Outfit-Thin-75" x="1834.09967"/>
    <use xlink:href="#Outfit-Thin-61" x="1885.299667"/>
    <use xlink:href="#Outfit-Thin-72" x="1944.199661"/>
    <use xlink:href="#Outfit-Thin-74" x="1984.399658"/>
    <use xlink:href="#Outfit-Thin-69" x="2017.999649"/>
    <use xlink:href="#Outfit-Thin-6c" x="2037.199646"/>
    <use xlink:href="#Outfit-Thin-65" x="2056.299637"/>
    <use xlink:href="#Outfit-Thin-73" x="2110.499634"/>
    <use xlink:href="#Outfit-Thin-2c" x="2152.199631"/>
    <use xlink:href="#Outfit-Thin-20" x="2179.299622"/>
    <use xlink:href="#Outfit-Thin-77" x="2202.299606"/>
    <use xlink:href="#Outfit-Thin-68" x="2276.099594"/>
    <use xlink:href="#Outfit-Thin-69" x="2329.799591"/>
    <use xlink:href="#Outfit-Thin-6c" x="2348.999588"/>
    <use xlink:href="#Outfit-Thin-65" x="2368.099579"/>
    <use xlink:href="#Outfit-Thin-20" x="2422.299576"/>
    <use xlink:href="#Outfit-Thin-6f" x="2445.299561"/>
    <use xlink:href="#Outfit-Thin-75" x="2502.599548"/>
    <use xlink:href="#Outfit-Thin-74" x="2553.799545"/>
    <use xlink:href="#Outfit-Thin-6c" x="2587.399536"/>
    <use xlink:href="#Outfit-Thin-69" x="2606.499527"/>
    <use xlink:href="#Outfit-Thin-65" x="2625.699524"/>
    <use xlink:href="#Outfit-Thin-72" x="2679.899521"/>
    <use xlink:href="#Outfit-Thin-73" x="2720.099518"/>
    <use xlink:href="#Outfit-Thin-20" x="2761.799515"/>
    <use xlink:href="#Outfit-Thin-61" x="2784.7995"/>
    <use xlink:href="#Outfit-Thin-72" x="2843.699493"/>
    <use xlink:href="#Outfit-Thin-65" x="2883.89949"/>
    <use xlink:href="#Outfit-Thin-20" x="2938.099487"/>
    <use xlink:href="#Outfit-Thin-6d" x="2961.099472"/>
    <use xlink:href="#Outfit-Thin-61" x="3044.799454"/>
    <use xlink:href="#Outfit-Thin-72" x="3103.699448"/>
    <use xlink:href="#Outfit-Thin-6b" x="3143.899445"/>
    <use xlink:href="#Outfit-Thin-65" x="3189.599442"/>
    <use xlink:href="#Outfit-Thin-64" x="3243.799438"/>
    <use xlink:href="#Outfit-Thin-20" x="3302.699432"/>
    <use xlink:href="#Outfit-Thin-73" x="3325.699417"/>
    <use xlink:href="#Outfit-Thin-65" x="3367.399414"/>
    <use xlink:href="#Outfit-Thin-70" x="3421.599411"/>
    <use xlink:href="#Outfit-Thin-61" x="3480.499405"/>
    <use xlink:href="#Outfit-Thin-72" x="3539.399399"/>
    <use xlink:href="#Outfit-Thin-61" x="3579.599396"/>
    <use xlink:href="#Outfit-Thin-74" x="3638.49939"/>
    <use xlink:href="#Outfit-Thin-65" x="3672.09938"/>
    <use xlink:href="#Outfit-Thin-6c" x="3726.299377"/>
    <use xlink:href="#Outfit-Thin-79" x="3745.399368"/>
    <use xlink:href="#Outfit-Thin-2e" x="3795.599365"/>
   </g>
  </g>
 </g>
 <defs>
  <clipPath id="p964d1e314a">
   <rect x="104.22" y="86.4" width="892.98" height="430.2"/>
  </clipPath>
 </defs>
</svg>
